<?xml version="1.0" encoding="utf-8"?>
<!-- Generator: Adobe Illustrator 26.2.1, SVG Export Plug-In . SVG Version: 6.00 Build 0)  -->
<svg version="1.1" id="Layer_1" xmlns="http://www.w3.org/2000/svg" xmlns:xlink="http://www.w3.org/1999/xlink" x="0px" y="0px"
	 viewBox="0 0 4164.06 2012.71" style="enable-background:new 0 0 4164.06 2012.71;" xml:space="preserve">
<g id="_x34_A9u4B.tif">
	<g>
		<path d="M0,1267.45c2.26-1.73,4.98-3.08,6.69-5.24c12.6-15.93,25.13-31.92,37.37-48.12c2.74-3.63,4.69-8.03,6.26-12.34
			c31.11-85.7,62.12-171.44,93.13-257.18c25.25-69.78,50.59-139.53,75.57-209.41c2.68-7.49,6.8-12.08,13.89-15.53
			c25.74-12.52,51.21-25.62,76.78-38.5c1.49-0.75,2.94-1.57,4.48-2.2c8.07-3.28,11.28-1.93,14.29,6.2
			c12.5,33.69,24.96,67.41,37.45,101.11c53.19,143.54,106.41,287.06,159.49,430.64c2.38,6.43,5.68,11.76,10.74,16.42
			c10.53,9.7,20.45,20.06,31.06,29.65c4.64,4.19,6.91,8.53,6.28,14.75c-0.43,4.21-0.08,8.51-0.08,13.45c-86.45,0-171.87,0-258.04,0
			c0-9.61,0-19.08,0-29.45c2.88-0.27,5.71-0.75,8.56-0.77c13.32-0.08,26.65-0.26,39.97,0.07c5.26,0.13,8.66-1.55,11.56-5.96
			c5.3-8.06,11.06-15.82,16.8-23.59c2.32-3.14,3.38-5.97,1.96-10.04c-13.39-38.32-26.58-76.72-39.85-115.08
			c-0.31-0.9-0.99-1.68-1.8-3.02c-71.31,0-142.83,0-214.97,0c-0.99,2.21-2.23,4.51-3.08,6.94c-9.96,28.59-19.73,57.26-29.88,85.78
			c-2.04,5.73-2.01,10.6,0.5,16.19c6.13,13.66,11.89,27.5,17.31,41.45c2.15,5.54,5.2,7.5,11.15,7.36
			c16.98-0.39,33.97-0.13,50.96-0.13c3.24,0,6.48,0,10.34,0c0,10.62,0,20.09,0,30.15c-2.93,0.3-5.48,0.79-8.04,0.79
			c-60.29,0.04-120.58,0.04-180.87,0.01c-1.99,0-3.97-0.28-5.96-0.43C0,1283.43,0,1275.44,0,1267.45z M247.2,797.05
			c-0.86,0.05-1.71,0.1-2.57,0.16c-30.61,87.77-61.74,175.36-92.3,263.67c62.53,0,123.57,0,185.81,0
			C307.6,972.25,277.4,884.65,247.2,797.05z"/>
		<path d="M0,552.16c2.61-2.45,5.58-4.62,7.78-7.4c11.36-14.36,22.72-28.74,33.66-43.42c3.71-4.98,7-10.58,9.11-16.4
			c33.23-91.33,66.23-182.75,99.29-274.14c23.1-63.85,46.48-127.6,69.06-191.63c4.4-12.47,13.48-18.12,24.36-18.49
			c31.93-1.09,63.91-0.39,96.37-0.39c1.27,2.97,2.55,5.62,3.56,8.37c50.17,135.46,100.32,270.93,150.47,406.4
			c10.75,29.03,21.58,58.03,32.23,87.09c1.99,5.44,4.79,9.99,9.11,13.98c10.77,9.93,21,20.46,31.82,30.33
			c4.81,4.39,7.38,9,6.65,15.61c-0.46,4.2-0.09,8.49-0.09,13.33c-86.56,0-171.98,0-258.1,0c0-10.12,0-19.91,0-30.28
			c3.02-0.26,5.57-0.65,8.13-0.66c13.66-0.06,27.32-0.18,40.98,0.05c4.74,0.08,8.1-1.11,10.85-5.27c5.52-8.32,11.49-16.34,17.4-24.4
			c2.11-2.88,2.91-5.5,1.63-9.18c-13.67-39.27-27.16-78.61-40.87-118.44c-72.07,0-143.85,0-216.45,0c-3.13,9-6.28,18.06-9.43,27.12
			c-7.65,22-15.2,44.04-23.03,65.99c-1.89,5.29-1.98,9.94,0.36,15.24c7.01,15.8,13.5,31.82,20.57,48.66c22.88,0,45.72,0,69.29,0
			c0,10.85,0,20.62,0,31.72c-65.07,0.06-129.9,0.13-194.73,0.19C0,568.14,0,560.15,0,552.16z M247.21,81.04
			c-0.82-0.02-1.65-0.03-2.47-0.05C214,168.6,183.27,256.2,152.51,343.89c10.16,2.68,177.52,2.35,185.22-0.34
			C307.55,256.05,277.38,168.54,247.21,81.04z"/>
		<path d="M2516.79,2012.71c-3.91-1.78-7.74-3.76-11.74-5.31c-38.36-14.9-63.97-41.22-73.15-81.99
			c-11.43-50.77,8.78-98.74,52.1-123.38c18.08-10.29,37.94-16.15,58.05-21.05c32.42-7.89,65.44-12.15,98.53-15.97
			c18.2-2.1,36.39-4.24,54.57-6.41c1.28-0.15,2.52-0.67,4.33-1.17c0.3-2.23,1.05-4.48,0.82-6.64c-1.59-15.52-2.15-31.29-5.36-46.49
			c-6.67-31.62-26.63-50.71-58.68-56.18c-20.55-3.5-41.12-3.36-61.34,2.7c-30.55,9.16-49.09,29.41-55.89,60.48
			c-0.57,2.6-0.96,5.24-1.42,7.86c-0.4,2.28-0.8,4.56-1.29,7.39c-24.27,0-48.44,0-73.7,0c0.21-4.16,0.04-8.07,0.66-11.86
			c9.03-55.44,40.17-93.12,92.25-113.51c34.34-13.44,70.2-15.05,106.3-10.91c15.11,1.73,30.33,4.92,44.74,9.73
			c36.22,12.09,59.8,37.46,72.28,73.32c8.86,25.46,11.81,51.85,11.95,78.63c0.25,49.28-0.05,98.57,0.69,147.84
			c0.53,35.31,2.99,70.53,12.39,104.87c0.15,0.55-0.2,1.24-0.31,1.87c-7.03,1.9-55.34,2.5-71.45,0.75
			c-4.73-21.71-4.83-44.3-7.05-68.39c-2,2.49-3.15,3.46-3.74,4.7c-15.28,32.22-40.83,52.71-73.83,64.76
			c-3.05,1.11-5.85,2.88-8.77,4.34C2584.76,2012.71,2550.78,2012.71,2516.79,2012.71z M2700.54,1809.6
			c-2.77,0.24-4.71,0.32-6.62,0.59c-34.88,5.03-69.8,9.88-104.63,15.22c-20.09,3.08-39.92,7.4-57.7,18.04
			c-21,12.57-29.67,31.68-28.55,55.43c1.1,23.48,12.09,41.03,33.35,51.73c11.17,5.62,23.14,8.3,35.5,9.22
			c31.32,2.34,60.26-4.12,85.17-24.16c21.65-17.42,33.58-40.74,39.86-67.36C2701.47,1849.06,2701.47,1829.62,2700.54,1809.6z"/>
		<path d="M3480.33,2012.71c-1.97-1.14-3.81-2.69-5.93-3.35c-62.61-19.55-100.8-62.91-118.5-124.5
			c-17.08-59.42-16.69-119.38,4.79-177.68c27.04-73.37,81.35-112.11,159.01-118.07c33.99-2.61,67.15,1.72,98.59,15.74
			c44.01,19.63,74.38,52.77,90.76,97.41c25.66,69.91,25.46,140.44-3.24,209.49c-20.1,48.36-56.24,80.8-106.46,97
			c-3.12,1.01-6.05,2.63-9.07,3.97C3553.63,2012.71,3516.98,2012.71,3480.33,2012.71z M3418.71,1802.41c0,2.66-0.07,5.33,0.01,7.98
			c0.9,29.81,4.7,59.05,17.78,86.33c14.38,29.98,37.23,50.02,70.11,57c10.95,2.33,22.46,3.32,33.66,3.02
			c47.5-1.26,80.4-24.17,98.38-68.25c11.52-28.26,14.32-57.94,14.18-88.06c-0.11-24.4-2.58-48.51-10.22-71.82
			c-14.81-45.21-44.07-73.74-92.88-78.58c-50.74-5.03-95.29,14.54-116.67,67.32C3422.01,1744.66,3419,1773.3,3418.71,1802.41z"/>
		<path d="M1489.29,2012.71c-2.63-1.31-5.14-2.98-7.91-3.86c-55.25-17.76-91.61-55.05-111.82-108.66
			c-14.83-39.32-18.22-80.26-15.24-121.86c2.28-31.81,9.08-62.57,23.45-91.24c27.72-55.29,72.62-87.05,133.63-96.16
			c30.67-4.58,61.17-3.38,91.05,5.14c57.32,16.35,95.36,53.76,116.56,108.77c16.14,41.88,19,85.51,15.13,129.74
			c-2.96,33.83-11.62,66.13-28.75,95.78c-21.91,37.93-53.68,63.82-95.24,77.75c-3.74,1.25-7.28,3.06-10.92,4.61
			C1562.58,2012.71,1525.93,2012.71,1489.29,2012.71z M1661.05,1803.23c0-6.65,0.34-13.32-0.06-19.95
			c-1.51-25.07-5.82-49.57-16.6-72.5c-13.27-28.22-34.13-48.06-64.56-56.81c-14.51-4.17-29.41-5.6-44.48-4.5
			c-44.35,3.25-75.47,25.21-92.8,66.24c-2.84,6.72-5.23,13.68-7.12,20.73c-7.93,29.57-9.31,59.7-7.13,90.08
			c1.65,23.04,5.78,45.55,15.31,66.75c14.23,31.67,37.43,53.15,71.92,60.51c10.95,2.34,22.46,3.26,33.67,2.96
			c47.08-1.25,79.89-23.93,97.91-67.48C1658.49,1861.73,1661.61,1832.73,1661.05,1803.23z"/>
		<path d="M1065.49,2012.71c-3.62-1.53-7.14-3.35-10.87-4.53c-39.07-12.31-70.34-34.38-89.76-71.36
			c-7.8-14.85-13.06-31.85-13.79-45.42c22.7-3.97,45.53-7.96,68.88-12.04c1.02,3,1.97,5.4,2.65,7.87
			c11.46,42.1,40.17,64.43,82.13,71.31c18.92,3.1,37.87,2.7,56.55-1.94c14.45-3.59,27.6-9.76,37.99-20.85
			c15.2-16.24,19.3-42.26,9.93-62.45c-4.53-9.76-11.48-17.59-21.26-21.61c-11-4.52-22.48-8.33-34.11-10.74
			c-28.35-5.87-56.93-10.63-85.37-16.09c-16.1-3.1-31.54-8.39-45.97-16.26c-36.46-19.9-55.56-50.76-56.67-92.2
			c-1.43-53.7,28-95.46,80.43-115.21c34.47-12.98,70.13-14.83,106.31-10.99c27.46,2.91,53.63,10.17,77.27,24.94
			c28.24,17.66,46.32,42.51,52.81,75.43c0.26,1.3,0.48,2.62,0.61,3.94c0.1,0.98,0.02,1.98,0.02,4.37
			c-21.94,6-44.59,10.4-67.43,15.64c-0.93-1.98-1.81-3.35-2.25-4.86c-9.58-33.13-31.56-53.28-64.84-61.05
			c-25.53-5.96-50.98-5.2-75.67,4.14c-29.49,11.16-43.73,37.02-37.99,67.57c3,15.98,12.23,27.44,26.46,34.18
			c9.82,4.66,20.42,8.25,31.06,10.48c30.95,6.47,62.16,11.65,93.11,18.09c11.33,2.36,22.58,5.98,33.27,10.45
			c41,17.13,62.32,48.23,64.07,92.66c2.28,57.81-28.54,101.55-85.12,120.98c-4.3,1.48-8.35,3.67-12.51,5.53
			C1145.45,2012.71,1105.47,2012.71,1065.49,2012.71z"/>
		<path d="M677.67,2012.71c-3.21-1.49-6.3-3.36-9.65-4.41c-34.06-10.71-62.76-28.84-82.86-59.09
			c-11.22-16.89-19.91-40.05-21.12-57.76c22.62-3.97,45.39-7.96,68.68-12.04c1.03,2.58,2.08,4.58,2.64,6.72
			c11.03,42.16,39.32,65.03,81.28,72.26c19.22,3.31,38.51,2.95,57.54-1.71c11.75-2.88,22.7-7.63,32.2-15.34
			c20.37-16.53,26.78-46.22,15.06-69.65c-4.49-8.97-11.2-16.17-20.3-19.88c-11.01-4.49-22.46-8.38-34.09-10.8
			c-28.35-5.89-57.02-10.19-85.32-16.3c-13.55-2.93-27.09-7.3-39.67-13.11c-43.76-20.22-65.81-57.78-63.13-105.97
			c2.51-45.04,25.59-76.72,64.74-97.33c27.41-14.42,57.14-19.45,87.85-19.73c34.71-0.31,68.45,4.36,99.85,20.18
			c32.29,16.27,54.51,41,63.19,76.77c0.63,2.58,1.01,5.22,1.42,7.85c0.25,1.59,0.35,3.2,0.63,5.87
			c-22.66,5.16-44.93,10.23-67.6,15.4c-0.99-2.1-2.06-3.76-2.59-5.58c-9.69-33.19-32.04-53.01-65.26-60.58
			c-25.52-5.82-50.99-4.95-75.65,4.55c-18.83,7.25-32.56,20-36.74,40.28c-6.22,30.23,3.67,53.25,31.87,64.02
			c14.47,5.53,30.02,8.47,45.28,11.69c26.7,5.62,53.6,10.29,80.31,15.86c14.41,3,27.98,8.61,40.73,16.05
			c25.98,15.16,42.19,37.28,46.99,67.14c5.3,33.01,1.45,64.44-18.06,92.62c-16.62,24-40.23,38.28-67.39,47.46
			c-3.72,1.26-7.26,3.05-10.88,4.6C757.64,2012.71,717.66,2012.71,677.67,2012.71z"/>
		<path d="M1943.07,2012.71c-2.24-1.27-4.34-2.98-6.75-3.76c-56.05-18.3-92.87-56.57-111.6-111.42
			c-23.21-67.97-22.56-136.51,5-203.12c24.77-59.87,71.03-94.12,135.26-103.51c32.72-4.78,65.16-3.28,96.76,7.13
			c47.61,15.69,78.9,48.01,95.27,95.04c4.91,14.11,8.51,28.55,9.41,44.7c-23.5,2.69-46.51,5.32-70.58,8.07
			c-0.98-4.72-1.51-8.94-2.75-12.94c-3.43-11.09-5.94-22.69-10.99-33.02c-16.16-33.07-44.1-48.72-80.17-50.5
			c-47.37-2.34-84.51,21.86-103.37,66.74c-8.74,20.79-13.06,42.6-14.57,64.98c-2.43,35.89,0.04,71.25,13.16,105.17
			c9.79,25.3,25.1,46.37,49.92,58.76c30.18,15.07,61.45,16.34,92.9,4.18c19.1-7.39,33.4-20.96,42.46-39.05
			c6.05-12.09,9.85-25.33,14.45-38.13c1.22-3.4,1.67-7.08,2.7-11.66c21.98,1.48,43.17,6.95,65.09,9.45c0.21,2.35,0.7,3.98,0.44,5.48
			c-6.92,38.98-21.99,73.88-51.45,101.43c-15.31,14.32-33.16,24.41-52.86,31.42c-3.37,1.2-6.52,3.02-9.78,4.56
			C2015.03,2012.71,1979.05,2012.71,1943.07,2012.71z"/>
		<path d="M2990.56,2012.71c-2.36-1.18-4.62-2.7-7.11-3.49c-32.18-10.19-50.58-32.91-59.2-64.65c-5.19-19.12-6.68-38.66-6.7-58.35
			c-0.07-72.23-0.03-144.47-0.03-216.7c0-3.95,0-7.89,0-12.93c-25.48-1.8-50.29,0.05-75.61-1.12c0-19.19,0-37.64,0-57.19
			c25.15,0,49.67,0,75.61,0c0-4.63,0-8.17,0-11.71c0-28.96,0.24-57.92-0.17-86.88c-0.1-6.86,2.23-9.99,8.44-12.45
			c17.33-6.85,34.37-14.42,51.55-21.66c2.71-1.14,5.51-2.05,9.81-3.63c0.48,12.1,0.18,23.24,0.24,34.36
			c0.05,11.32,0.01,22.64,0.01,33.95c0,10.98,0,21.97,0,32.95c0,11.23,0,22.45,0,34.94c34.59,0,68.04,0,102.1,0
			c0,19.42,0,37.58,0,56.79c-11.09,1.88-22.31,0.59-33.44,0.82c-10.99,0.23-21.98,0.05-32.97,0.05c-11.29,0-22.59,0-34.83,0
			c-0.33,3.46-0.82,6.31-0.83,9.15c-0.04,72.57-0.14,145.14,0.1,217.7c0.03,9.25,1.06,18.67,3.02,27.7
			c5.03,23.09,20.16,36.07,43.8,38.47c15.69,1.6,31.26,0.61,46.66-2.86c2.52-0.57,5.11-0.83,8.44-1.35c0,21.15,0,41.62,0,62.46
			c-3.5,1.79-7.21,3.7-10.93,5.6C3049.2,2012.71,3019.88,2012.71,2990.56,2012.71z"/>
		<path d="M1044.93,545.7c0,9.87,0,19.41,0,29.63c-67.23,0-133.98,0-201.42,0c0-10.1,0-19.87,0-30.91c5.66,0,10.9-0.22,16.12,0.07
			c4.4,0.24,7.36-1.42,10.31-4.67c18.33-20.18,18.41-20.11,18.41-47.37c0-65.26,0.11-130.53-0.12-195.79
			c-0.04-9.93-1.08-19.95-2.8-29.73c-1.07-6.09-3.61-12.18-6.68-17.6c-5.95-10.54-15.34-16.26-27.62-17.13
			c-15.48-1.09-29.67,3.12-43.19,10.15c-14.91,7.75-27.79,18.22-39.85,29.83c-3.38,3.25-4.65,6.81-4.64,11.48
			c0.11,76.25,0.1,152.5,0.02,228.75c0,4.26,1.07,7.65,4.04,10.78c4.81,5.07,9.5,10.29,13.8,15.78c3.17,4.04,6.73,5.96,11.94,5.54
			c4.89-0.4,9.84-0.09,15.44-0.09c0,10.77,0,20.54,0,30.96c-69.53,0-138.64,0-207.73,0c-2.12-7.14-2.45-17.81-0.78-30.59
			c7.01-0.12,14.22-0.54,21.41-0.27c5.11,0.19,8.83-1.27,12.1-5.3c5.86-7.22,14.34-13.2,17.62-21.35
			c3.13-7.79,1.21-17.68,1.21-26.65c0.04-82.91-0.06-165.82,0.18-248.73c0.02-7.57-1.87-13.4-7.33-18.59
			c-5.78-5.49-10.06-13.57-16.78-16.76c-6.33-3.01-14.99-1.07-22.61-1.42c-1.93-0.09-3.85-0.56-6.24-0.93c0-9.86,0-19.4,0-30.37
			c54.12-2.96,108.1-5.69,163.45-8.25c-2.01,23.05-3.91,44.93-5.81,66.81c0.63,0.23,1.26,0.46,1.9,0.69
			c2.29-3.05,4.55-6.13,6.87-9.16c25.28-32.91,58.19-54.3,99.36-59.45c53.84-6.74,95.63,13.91,123.54,61.08
			c1.65,2.79,3.3,5.6,5.42,9.2c3.8-4.97,6.93-9.22,10.22-13.33c23.72-29.74,53.67-49.73,91.45-56.33
			c25.37-4.43,50.57-2.37,74.64,7.37c29.1,11.77,47.28,33.69,56.86,63.13c6.03,18.55,8,37.67,7.97,57.11
			c-0.09,71.59,0.05,143.18-0.17,214.77c-0.02,7.14,1.37,12.72,6.88,17.65c6.18,5.52,10.64,13.97,17.67,17.27
			c6.62,3.11,15.61,1.17,23.55,1.5c1.29,0.05,2.57,0.37,4.58,0.67c0,9.92,0,19.7,0,30.18c-69.37,0-138.46,0-208.55,0
			c-1.55-9.72-0.61-19.52-0.65-30.68c6.14-0.08,11.67-0.35,17.18-0.17c4,0.13,6.75-1.3,9.51-4.23
			c19.11-20.27,19.17-20.21,19.17-48.05c0-62.26,0.18-124.53-0.16-186.79c-0.06-11.91-1.01-24.05-3.5-35.67
			c-6.67-31.21-26.52-43.11-57.52-35.65c-16.95,4.08-31.11,13.29-44.28,24.24c-19.91,16.56-19.88,16.6-19.88,42.63
			c0,69.26,0.09,138.52-0.13,207.77c-0.02,6.84,1.42,12.32,6.72,16.69c1.27,1.05,2.42,2.31,3.41,3.64
			c8.13,11.03,17.93,18.47,32.7,15.6C1042.67,544.56,1043.33,545.09,1044.93,545.7z"/>
		<path d="M3136.96,204.89c0-9.88,0-19.4,0-28.88c7.43-2.48,148.8-10.17,163.43-8.72c-1.99,22.29-3.98,44.63-6.03,67.54
			c4.58-0.47,5.54-4.04,7.32-6.43c16.21-21.66,35.49-39.85,60.22-51.31c39.37-18.25,79.59-18.48,119.13-1.48
			c34.85,14.98,53.75,43.65,60.95,80.07c2.5,12.65,3.65,25.76,3.71,38.66c0.35,71.24,0.24,142.49,0.05,213.74
			c-0.02,7.07,1.18,12.77,6.77,17.71c6.21,5.49,10.66,13.94,17.69,17.23c6.63,3.1,15.62,1.15,23.57,1.47
			c1.28,0.05,2.54,0.39,4.52,0.72c0,10,0,19.76,0,30.18c-71.14,0-141.91,0-213.4,0c0-10.02,0-19.79,0-30.96
			c7.06,0,13.94-0.18,20.81,0.07c4.36,0.16,7.36-1.35,10.36-4.59c18.58-20.06,18.66-19.99,18.66-47.2
			c0-62.92,0.2-125.85-0.19-188.77c-0.07-11.53-1.34-23.35-4.16-34.51c-6.06-23.95-22.35-36-46.92-37.32
			c-14.87-0.8-28.3,3.15-40.98,10.47c-14.25,8.24-26.39,19.07-38.12,30.49c-3.56,3.47-3.79,7.4-3.79,11.8
			c0.05,38.62,0.03,77.24,0.03,115.86c0,36.29,0.11,72.58-0.11,108.87c-0.04,6.04,1.18,10.89,5.61,15.24
			c4.74,4.65,9.01,9.82,13.18,15c2.76,3.43,5.94,4.84,10.32,4.66c6.56-0.27,13.14-0.07,20.28-0.07c0,10.94,0,20.7,0,31.04
			c-71.05,0-141.51,0-212.74,0c0-10.04,0-19.8,0-31.04c7.33,0,14.54-0.28,21.72,0.1c5.15,0.27,8.79-1.38,12.04-5.38
			c5.86-7.22,14.37-13.18,17.66-21.33c3.14-7.78,1.21-17.67,1.21-26.63c0.04-82.57-0.07-165.13,0.18-247.7
			c0.02-7.85-1.5-14.12-7.36-19.57c-5.83-5.42-10.07-13.53-16.79-16.73c-6.32-3.01-14.97-1.1-22.59-1.44
			C3141.31,205.64,3139.39,205.22,3136.96,204.89z"/>
		<path d="M3621.34,1260.89c0,8.29,0.06,15.22-0.03,22.16c-0.03,2.6-0.42,5.2-0.69,8.29c-70.99,0-141.49,0-213.22,0
			c-0.93-9.88-0.69-19.58-0.11-30.44c7.72,0,14.66-0.36,21.54,0.11c5.64,0.39,9.44-1.81,12.86-5.95
			c4.24-5.13,8.55-10.28,13.41-14.79c4.69-4.35,5.33-9.39,5.32-15.28c-0.12-69.91-0.07-139.82-0.07-209.73
			c0-19.97-0.13-39.95,0.09-59.92c0.05-5-1.18-8.9-4.75-12.51c-6.32-6.38-11.13-15.4-18.65-19.12c-7.06-3.49-16.81-1.52-25.37-2
			c-1.26-0.07-2.49-0.47-4.16-0.81c0-10.1,0-19.89,0-30.53c54.33-2.71,108.05-5.4,162.85-8.13c0.02,23.37-4.54,45.8-5.06,70.79
			c3.35-4.15,5.4-6.53,7.28-9.04c17.29-23.04,38.02-42.18,64.96-53.09c42.9-17.37,85.52-16.13,125.91,7.15
			c30.76,17.73,45.24,47,50.52,81.06c1.77,11.45,2.2,23.2,2.24,34.82c0.19,70.24,0.18,140.49-0.04,210.73
			c-0.02,6.8,1.44,12.09,6.49,16.81c6.08,5.66,10.58,14.06,17.61,17.36c6.93,3.25,16.16,1.59,24.38,2.15
			c1.27,0.09,2.52,0.52,4.34,0.91c0,9.65,0,19.12,0,29.3c-71.26,0-142.04,0-213.7,0c0-9.72,0-19.41,0-30.29
			c6.58,0,12.84-0.28,19.06,0.09c5.47,0.32,9.75-1.07,12.91-5.72c1.3-1.92,2.8-3.81,4.57-5.28c11.8-9.76,14.18-22.19,14-37.15
			c-0.77-62.91-0.18-125.84-0.46-188.75c-0.05-11.25-0.86-22.7-3.09-33.7c-7.2-35.63-33.95-45.71-63.08-41.48
			c-12.76,1.85-24.3,7.37-34.45,15.1c-10.04,7.64-19.29,16.3-28.96,24.44c-3.58,3.01-4.95,6.59-4.94,11.32
			c0.11,75.9,0.1,151.8,0.01,227.71c-0.01,4.6,1.09,8.31,4.32,11.71c5.04,5.31,9.9,10.81,14.46,16.54
			c3.24,4.07,7.03,5.56,12.13,5.26C3607.68,1260.62,3613.65,1260.89,3621.34,1260.89z"/>
		<path d="M993.7,882.2c0,4.79,0,8.68,0,12.57c0,109.53,0.08,219.06-0.16,328.58c-0.02,7.93,1.79,14.05,7.64,19.43
			c6.09,5.6,10.64,13.97,17.67,17.14c6.68,3.01,15.69,0.87,23.67,0.97c2.96,0.04,5.91,0.01,9.63,0.01c0,10.59,0,20.33,0,31.19
			c-56.14,2.68-111.86,5.34-169.08,8.07c2.03-25.17,3.95-49.06,5.88-72.95c-0.59-0.28-1.17-0.56-1.76-0.84
			c-2.4,3.01-4.8,6.01-7.2,9.02c-15.23,19.18-32.51,36.13-53.65,48.78c-35.82,21.43-73.7,24.33-112.37,10.02
			c-39.58-14.65-60.26-45.58-68.04-85.76c-2.26-11.68-3.11-23.79-3.16-35.71c-0.28-71.24-0.25-142.49,0.01-213.73
			c0.03-7.9-1.55-14.34-7.72-19.39c-0.76-0.63-1.44-1.41-2-2.23c-8.08-11.75-18.31-18.86-33.42-15.71
			c-0.87,0.18-1.89-0.34-3.55-0.69c0-9.77,0-19.57,0-30.62c51.98-2.7,104.01-5.4,157.53-8.18c0,4.58,0,8.45,0,12.31
			c0,89.55-0.1,179.11,0.14,268.66c0.03,9.9,1.04,20.01,3.26,29.65c7.98,34.71,33.75,46.68,66.59,39.74
			c10.61-2.24,20.19-7.1,28.36-14.11c9.33-8.01,18.01-16.78,27.11-25.06c3.63-3.3,3.95-7.32,3.93-11.78
			c-0.1-18.98-0.04-37.95-0.04-56.93c0-55.6-0.1-111.19,0.13-166.79c0.03-6.79-1.55-12.16-6.43-16.92
			c-4.76-4.64-9.16-9.67-13.45-14.76c-2.83-3.34-6.07-4.7-10.44-4.49c-5.92,0.29-11.87,0.07-18.47,0.07c0-10.63,0-20.42,0-31.41
			C887.05,887.66,939.71,884.97,993.7,882.2z"/>
		<path d="M224.51,1426.29c16.87,0,32.83,0,48.79,0c6.66,0,13.32-0.04,19.98,0.01c8.52,0.07,8.6,0.08,11.53,7.79
			c13.02,34.2,26,68.43,38.98,102.65c53.2,140.31,106.4,280.61,159.59,420.92c6.11,16.12,12.15,32.27,18.78,49.9
			c-27.21,1.13-53.28,0.21-80.29,0.6c-19.99-55.97-39.87-111.64-59.81-167.48c-79.54,0-158.35,0-237.61,0
			c-2.85,7.77-5.64,15.21-8.31,22.69c-15.98,44.81-31.9,89.64-47.93,134.44c-4.1,11.46-2.53,10.23-14.7,10.27
			c-19.32,0.07-38.63,0.02-57.95,0.02c-3.24,0-6.49,0-11.62,0C77.73,1813.45,150.91,1620.43,224.51,1426.29z M358.62,1774.05
			c-32.13-90.29-63.82-179.35-95.43-268.18c-31.69,89.07-63.39,178.18-95.41,268.18C231.75,1774.05,294.23,1774.05,358.62,1774.05z"
			/>
		<path d="M3096.47,553.98c0,7.21,0,14.06,0,21.97c-53.25,2.74-105.98,5.45-160.05,8.23c1.12-20.4,5.58-39.42,7.72-60.74
			c-3,2.61-4.78,4.09-6.5,5.66c-12.5,11.43-24.03,24.22-37.68,34.07c-37.15,26.81-78.44,29.74-120.87,15.63
			c-30.98-10.3-49.49-33.28-55.83-65c-11.04-55.24,5.65-100.82,52.12-133.6c27.98-19.74,59.52-31.11,92.81-37.57
			c18.6-3.61,37.52-5.55,56.3-8.23c5.21-0.74,10.42-1.45,14.99-2.09c0.72-1.04,1.08-1.32,1.08-1.59
			c-0.07-28.6-0.07-57.21-0.35-85.81c-0.04-3.92-1.22-7.9-2.29-11.73c-6.55-23.57-28.33-35.03-51.6-27.01
			c-17.28,5.96-27.02,18.87-31.28,36.05c-1.5,6.06-1.81,12.51-1.94,18.79c-0.27,13.92-0.09,27.86-0.09,42.49
			c-35.37,0-69.85,0-105.19,0c-0.88-2.34-2.33-4.97-2.87-7.77c-6.56-33.93,1.39-63.35,27.48-87.01
			c15.79-14.31,34.18-24.19,54.07-31.41c50.37-18.28,101.36-18.45,152-2.38c48.27,15.32,73.36,51.57,73.66,103.39
			c0.27,47.27,0.06,94.55,0.06,141.82c0,32.63,0.14,65.25-0.13,97.88c-0.05,6.13,1.49,10.76,5.92,15.05
			c5.49,5.32,10.05,11.58,15.55,16.88C3079.8,555.98,3088.4,550.83,3096.47,553.98z M2940.65,373.21
			c-6.77,1.16-12.38,1.86-17.87,3.1c-24.82,5.6-47.45,15.56-65.47,34.14c-23.34,24.06-29.92,59.51-16.5,87.77
			c8.29,17.46,21.73,24.3,40.69,20.99c21.67-3.78,38.4-15.94,53.68-30.85c4.4-4.3,6.05-8.89,6-15.02c-0.27-30.3-0.11-60.6-0.14-90.9
			C2941.04,379.82,2940.82,377.22,2940.65,373.21z"/>
		<path d="M3212.07,1048.05c0-14.45,0.17-28.07-0.04-41.69c-0.23-14.97-0.71-29.93-1.33-44.88c-0.15-3.61-1.11-7.23-2.03-10.76
			c-7.62-29.17-39.38-40.31-63.78-22.33c-12.54,9.24-19.39,22.06-20.53,37.33c-1.02,13.58-0.6,27.28-0.78,40.92
			c-0.05,3.94-0.01,7.88-0.01,12.55c-3.71,0.3-6.57,0.73-9.42,0.74c-28.99,0.05-57.97,0.05-86.96,0.02
			c-9.7-0.01-10.63-0.67-12.22-10.34c-5.67-34.51,3.33-63.97,30.48-87.03c21-17.84,45.52-28.66,71.93-35.52
			c45.06-11.7,89.96-10.29,133.82,4.8c46,15.82,69.85,49.38,71.28,97.9c0.66,22.29,0.26,44.62,0.27,66.93
			c0.02,58.94,0.1,117.88-0.11,176.82c-0.02,6.46,1.56,11.46,6.2,15.99c5.47,5.34,10.09,11.57,15.64,16.81
			c6.33,5.99,14.93,0.6,22.78,3.87c0,6.4,0,13.21,0,20.05c-7.37,2.8-148.24,10.38-160.81,8.42c2.73-19.12,5.46-38.28,8.19-57.45
			c-0.55-0.28-1.11-0.57-1.66-0.85c-2.45,2.54-4.95,5.02-7.34,7.61c-15.89,17.27-32.96,33.19-54.6,42.97
			c-34.51,15.59-69.9,16.07-104.99,2.57c-30.64-11.79-47.53-35.77-53.1-67.41c-9.77-55.47,8.81-99.56,55.34-131.45
			c28.5-19.53,60.58-30.54,94.26-36.75c19.3-3.56,38.89-5.48,58.35-8.16C3204.42,1049.24,3207.96,1048.67,3212.07,1048.05z
			 M3212.07,1089.38c-21.84,2.37-41.07,8.05-59.02,18c-16.35,9.07-30.01,21.06-38.84,37.73c-12.13,22.9-13.19,46.51-2.31,70.11
			c7.12,15.46,18.56,21.86,35.26,20.4c5.9-0.51,11.84-1.91,17.48-3.74c16.24-5.29,29.06-15.8,41.07-27.54
			c4.55-4.45,6.61-9.19,6.52-15.79c-0.37-27.95-0.16-55.9-0.16-83.85C3212.07,1100.09,3212.07,1095.47,3212.07,1089.38z"/>
		<path d="M2278.26,1048.22c0.24-3.03,0.56-5.3,0.57-7.58c0.04-21.97,0.19-43.95-0.08-65.92c-0.09-6.95-0.76-14.01-2.18-20.81
			c-3.24-15.52-10.32-28.16-27.29-32.26c-18.27-4.41-33.66,0.47-45.81,14.7c-8.28,9.7-12.26,21.33-12.64,33.99
			c-0.39,12.97-0.2,25.97-0.26,38.95c-0.01,2.96,0,5.91,0,8.64c-7.47,2.43-90.44,3.18-105.67,1.06c-0.83-2.82-2.07-5.9-2.62-9.1
			c-5.72-33.21,2.12-62.05,27.75-85.08c21.33-19.17,46.68-30.54,74.08-37.63c46.77-12.11,93.21-10.48,138.48,6.31
			c41.27,15.32,63.03,46.17,66.54,89.92c0.48,5.96,0.61,11.97,0.61,17.96c0.04,76.91,0.13,153.82-0.13,230.73
			c-0.03,7.6,1.72,13.62,7.41,18.51c0.25,0.22,0.45,0.49,0.67,0.74c4.97,5.37,9.07,12.38,15.18,15.65
			c5.65,3.02,13.44,2.02,21.12,2.89c0,6.81,0,13.91,0,22.21c-53.14,2.67-106.19,5.33-160.58,8.05c2.81-20.44,5.44-39.56,8.07-58.68
			c-0.54-0.21-1.08-0.42-1.62-0.62c-2.51,2.49-5.12,4.88-7.51,7.48c-11.96,13.07-24.74,25.26-39.85,34.62
			c-38.14,23.63-78.64,26.04-119.79,10.28c-33.04-12.65-49.17-39.36-53.68-73.53c-7.81-59.08,16.69-102.06,66.83-131.73
			c29.04-17.18,60.89-26.7,94-32.06c16.09-2.61,32.36-4.16,48.54-6.23C2271.63,1049.28,2274.85,1048.73,2278.26,1048.22z
			 M2278.85,1090.02c-36.24,2.22-70.75,19.96-87.5,40.51c-3.35,4.11-6.62,8.39-9.17,13.01c-12.68,23-14.2,46.84-3.53,70.9
			c7.26,16.39,18.99,22.87,36.68,21.12c5.56-0.55,11.15-1.91,16.47-3.68c16.18-5.36,29.02-15.8,41.02-27.54
			c4.33-4.23,6.24-8.71,6.17-14.91c-0.3-30.24-0.14-60.49-0.14-90.74C2278.85,1096.08,2278.85,1093.47,2278.85,1090.02z"/>
		<path d="M1433.98,337.59c-0.08,39.97,4.6,76.88,27.58,109c16.43,22.97,38.92,37.2,66.85,41.69c33.82,5.43,66.39,1.69,96.39-16.23
			c14.24-8.51,25.47-20.25,35.15-33.57c1.93-2.65,3.91-5.27,6.2-8.37c6.05,2.63,11.76,5.11,17.38,7.56
			c0.09,1.54,0.43,2.58,0.17,3.43c-10.59,34.39-25.84,66.34-50,93.44c-25.36,28.44-56.83,45.83-94.82,50.43
			c-42.62,5.16-83.04-1.53-119.81-24.73c-30.85-19.47-52.12-47.08-66.65-80.18c-35.2-80.17-22.36-182.75,31.78-250.46
			c27.4-34.27,62.15-57.49,106.15-63.73c46.08-6.54,89.9,0.57,128.09,29.06c31.88,23.78,48.19,56.08,48.41,96.12
			c0.05,9.99,0.08,19.97-0.02,29.96c-0.1,9.92-6.71,16.53-16.83,16.56c-30.31,0.09-60.61,0.03-90.92,0.04c-37.63,0-75.27,0-112.9,0
			C1442.57,337.59,1438.96,337.59,1433.98,337.59z M1437.57,295.75c11.03,2.05,119.65,1.73,127.94-0.38
			c-0.09-16.7,1.61-33.64-2.37-50.34c-5.04-21.15-19.45-34.06-40.84-36.87c-26.88-3.54-47.44,7.1-62.81,28.58
			C1447.01,254.18,1441.09,274.18,1437.57,295.75z"/>
		<path d="M1106.05,1291.87c0-52.58,0-103.42,0-155.69c7.57,0,14.8-0.46,21.91,0.27c2.23,0.23,4.61,3.39,6.07,5.74
			c6.85,11.03,13.22,22.35,20.09,33.36c12.72,20.4,26.63,39.89,44.73,56c21.86,19.46,47.2,29.56,76.71,28.01
			c4.94-0.26,10-0.99,14.7-2.46c11.82-3.71,18.99-11.92,21.15-24.19c2.96-16.82-1.42-31.63-12.48-44.56
			c-9.45-11.04-21.06-19.45-33.57-26.47c-22.64-12.71-45.65-24.74-68.33-37.38c-20.14-11.22-39.14-24.08-55.38-40.65
			c-29.09-29.68-41.59-65.59-37.6-106.56c3.8-38.96,26.52-65.06,60.9-81.74c20.03-9.72,41.44-14.44,63.61-15.59
			c26.44-1.37,52.58,1.52,78.42,6.77c11.17,2.27,22.26,3.79,33.66,3.39c7.23-0.26,14.48-0.05,22.28-0.05c0,47.55,0,93.95,0,141.48
			c-7.02,0-13.59-0.11-20.16,0.04c-3.78,0.08-5.14-2.4-6.45-5.2c-3.66-7.84-7.22-15.73-11.03-23.5
			c-8.37-17.08-17.84-33.5-30.3-48.01c-14.45-16.83-31.44-29.77-53.85-33.88c-5.85-1.07-11.91-1.64-17.85-1.5
			c-29.61,0.66-47.08,28.64-35.09,55.93c4.42,10.07,11.55,18.2,20.63,23.89c15.77,9.87,31.87,19.32,48.39,27.85
			c26.92,13.9,54.41,26.71,78.64,45.26c27.94,21.39,47.92,48.09,54.42,83.29c7.49,40.56,0.9,77.67-29.31,108.04
			c-18.88,18.98-42.06,30.55-68.17,35.28c-14.31,2.59-29.12,3.56-43.68,3.33c-34.33-0.53-68.46-3.99-102.38-9.53
			c-6.51-1.06-13.26-0.79-19.9-0.94C1120.23,1291.76,1113.63,1291.87,1106.05,1291.87z"/>
		<path d="M2657.1,293.87c-36.25,0-71.16,0-106.92,0c-0.26-3.13-0.65-6.01-0.7-8.9c-0.16-10.32,0.11-20.65-0.38-30.95
			c-0.3-6.28-1.15-12.64-2.7-18.72c-5.13-20.12-19.31-29.64-40.14-27.66c-13.07,1.24-24.33,6.51-34.23,14.9
			c-10.63,9.01-18.8,20.04-23.69,32.94c-20.85,54.98-23.32,110.64-1.14,165.57c15.55,38.5,44.89,62.82,86.7,68.39
			c37.3,4.98,70.53-6.57,98.69-31.46c8.66-7.65,16.01-16.77,24.61-25.9c5.45,2.37,11.4,4.95,17.89,7.77
			c-13.41,42.41-31.2,81.06-64.39,110.66c-24.76,22.08-54.2,33.63-87.15,35.5c-74.77,4.25-131.08-26.46-168.02-91.38
			c-42.25-74.26-36.9-179.83,12.14-249.75c34.53-49.24,82.89-74.57,142.15-80.21c34.15-3.25,67.11,1.32,98.41,15.91
			c12.16,5.66,23.43,12.69,33.12,22.03c18.27,17.63,26.36,38.91,22,64.22C2661.8,275.91,2659.23,284.82,2657.1,293.87z"/>
		<path d="M2468.04,741.07c0-10.52,0-20.04,0-30.87c54.74-2.76,109.08-5.49,164.69-8.3c0.21,4.87,0.53,9.03,0.53,13.19
			c0.03,102.85,0.02,205.7,0.02,308.55c0,66.9,0.11,133.8-0.15,200.7c-0.03,7.25,1.73,12.75,7.06,17.63
			c4.9,4.48,9.34,9.49,13.71,14.51c2.88,3.31,6.18,4.56,10.52,4.46c9.28-0.22,18.57-0.07,28.72-0.07c0,10.47,0,20.18,0,30.44
			c-74.9,0-149.37,0-224.74,0c0-9.9,0-19.61,0-30.44c8.26,0,16.19-0.22,24.1,0.08c4.77,0.18,8.19-1.39,11.18-5.07
			c5.87-7.23,14.2-13.35,17.47-21.54c3.12-7.8,1.3-17.66,1.3-26.62c0.04-142.79-0.04-285.58,0.21-428.37
			c0.01-8.3-1.88-14.69-7.99-20.32c-5.61-5.17-9.62-13.09-16.06-16.03c-6.41-2.92-14.96-1.12-22.57-1.43
			C2473.75,741.5,2471.46,741.3,2468.04,741.07z"/>
		<path d="M3826.19,1598.83c21.02,0,42.16,0,64.43,0c0,24.94,0,49.37,0,75.37c4.74-3.04,5.61-6.65,7.19-9.6
			c13.88-25.83,32.5-47.03,58.94-60.64c14.36-7.39,29.65-11.9,45.64-13.87c23.68-2.91,47.25-2.39,70.39,3.89
			c36.57,9.93,61.74,32.98,76.32,67.69c9.25,22.03,14.44,45.21,14.58,68.98c0.51,90.56,0.32,181.13,0.38,271.7
			c0,1.32-0.22,2.63-0.33,3.87c-6.86,2.26-54.57,2.86-68.43,0.74c-0.16-3.63-0.47-7.49-0.47-11.36c-0.03-76.91,0-153.83-0.04-230.74
			c-0.01-16.99-0.34-34.01-4.68-50.58c-1.76-6.74-3.84-13.49-6.67-19.83c-10.51-23.49-28.44-38.38-53.76-43.31
			c-34.86-6.79-67.07-1.45-94,23.56c-14.47,13.44-23.71,30.28-30.09,48.82c-7.55,21.98-10.4,44.69-10.42,67.8
			c-0.06,67.92-0.02,135.85-0.02,203.77c0,3.9,0,7.8,0,12.34c-23.71,0-46.19,0-68.58,0
			C3824.36,2000.03,3823.95,1609.46,3826.19,1598.83z"/>
		<path d="M1719.73,921.77c0-10.88,0-20.66,0-31.42c45.81-2.7,91.15-5.38,137.94-8.14c-2.65,36.07-5.23,71.21-7.81,106.35
			c0.84,0.24,1.68,0.47,2.52,0.71c2.07-3.93,4.2-7.84,6.2-11.81c10.84-21.52,23.73-41.64,40.31-59.23
			c17.5-18.57,37.75-32.61,63.45-37.26c15.47-2.79,30.47-0.92,45.12,4.64c5.2,1.98,7.84,4.84,7.79,11.03
			c-0.3,36.28-0.15,72.57-0.18,108.85c0,1.31-0.28,2.62-0.59,5.4c-11.1,0.09-22.26,0.21-33.42,0.25
			c-11.66,0.04-23.31,0.01-34.97,0.01c-11.32,0-22.65,0-33.97,0c-11.28,0-22.56,0-34.49,0c-0.38,3.21-0.93,5.73-0.93,8.26
			c-0.05,69.24,0,138.48-0.12,207.72c-0.01,4.97,1.13,8.95,4.62,12.59c4.84,5.04,9.48,10.3,13.8,15.78
			c3.19,4.05,6.87,5.65,12.02,5.48c9.98-0.33,19.98-0.14,29.97-0.07c3.25,0.02,6.5,0.32,10.35,0.53c0,10.07,0,19.52,0,29.71
			c-75.8,0-151.22,0-227.42,0c0-9.53,0-19,0-29.68c4.98-0.19,10.16-0.79,15.29-0.48c6.14,0.37,10.8-1.2,14.74-6.26
			c5.5-7.07,13.87-12.76,16.92-20.62c3.05-7.87,1.25-17.69,1.26-26.65c0.05-82.89-0.07-165.77,0.19-248.66
			c0.02-7.94-1.87-14.16-7.73-19.44c-3.2-2.88-6.33-6.03-8.75-9.56c-4.67-6.85-10.83-9.1-18.83-8.12
			C1728.81,922.19,1724.51,921.77,1719.73,921.77z"/>
		<path d="M1955.5,544.42c0,10.93,0,20.74,0,31.08c-76.05,0-151.48,0-227.6,0c0-10.17,0-19.94,0-31.08c6.11,0,12-0.2,17.87,0.06
			c4.65,0.21,8.24-0.97,11.32-4.73c6.11-7.45,14.77-13.67,18.29-22.11c3.21-7.7,1.18-17.65,1.19-26.61
			c0.04-82.88-0.05-165.77,0.16-248.65c0.02-7.15-1.16-13.11-6.85-17.72c-0.51-0.41-0.97-0.93-1.35-1.47
			c-8.96-12.65-19.85-21.18-36.65-17.59c-1.14,0.24-2.5-0.54-4.18-0.95c0-9.74,0-19.27,0-30.16c45.66-3.09,91.23-5.81,138.12-8.26
			c-2.64,36.06-5.18,70.73-7.79,106.43c5.25-1.68,5.74-5.66,7.21-8.56c10.56-20.88,22.77-40.66,38.36-58.2
			c13.88-15.61,29.78-28.56,49.52-36.18c20.07-7.75,40.33-7.95,60.6-0.96c9.04,3.11,9.62,4.2,9.63,13.68
			c0.03,34.28,0.02,68.57,0,102.85c0,2.62-0.25,5.25-0.46,9.26c-45.62,0.61-91.04-0.12-137.14,0.41c-0.3,3.57-0.75,6.43-0.75,9.3
			c-0.04,68.9,0.02,137.81-0.13,206.71c-0.01,5.37,1.36,9.54,5.12,13.37c6.27,6.38,11.1,15.48,18.61,18.97
			c7.16,3.33,16.98,1,25.62,1.08C1940.86,544.47,1947.5,544.42,1955.5,544.42z"/>
		<path d="M1593.55,890.21c31.97,0,62.17,0,93.07,0c0,11.96,0,23.07,0,35.37c-30.59,0-61.04,0-92.18,0c0,101.54,0,201.89,0,303.42
			c30.7,1.41,61.48-0.25,91.91,0.9c1.83,5.62,0.59,9.73-2.33,13.84c-32.42,45.55-76.56,64.79-131.69,57.12
			c-36.22-5.04-59.79-30.02-66.74-68.62c-1.82-10.08-2.46-20.5-2.48-30.77c-0.19-86.21-0.11-172.43-0.11-258.64
			c0-3.97,0-7.94,0-12.63c-12.88-4.26-25.43-8.4-38.78-12.81c0-7.85-0.53-15.48,0.25-22.98c0.33-3.13,2.9-6.55,5.38-8.84
			c31.53-29.15,63.24-58.13,94.9-87.14c0.98-0.9,1.96-1.8,2.98-2.66c5.32-4.45,10.07-11.3,16.12-12.76c9.04-2.18,19-0.57,29.69-0.57
			C1593.55,818.4,1593.55,853.51,1593.55,890.21z"/>
		<path d="M2061.45,205.15c0-10.63,0-20.16,0-30.84c55.16-2.74,109.83-5.45,165.85-8.23c0,5.49,0,9.72,0,13.95
			c0,109.19,0.07,218.37-0.16,327.56c-0.02,7.59,1.86,13.35,7.41,18.47c6.1,5.63,10.68,14.08,17.73,17.15
			c7.05,3.07,16.34,1.04,24.65,1.2c3.27,0.06,6.54,0.01,10.58,0.01c0,10.63,0,20.41,0,30.9c-75.03,0-149.77,0-225.27,0
			c0-9.9,0-19.67,0-30.91c8.07,0,15.94-0.27,23.79,0.09c5.46,0.25,9.43-1.31,12.83-5.76c5.44-7.12,13.5-13.01,16.58-20.93
			c2.94-7.55,1.1-17.03,1.1-25.67c0.04-83.22-0.06-166.44,0.16-249.66c0.02-7.51-1.61-13.42-7.21-18.61
			c-5.84-5.4-10.06-13.64-16.78-16.68c-6.71-3.03-15.64-1.13-23.59-1.45C2066.85,205.66,2064.58,205.4,2061.45,205.15z"/>
		<path d="M2953.79,1260.89c0,9.13,0.06,16.73-0.04,24.33c-0.03,1.92-0.59,3.84-0.98,6.17c-74.82,0-149.33,0-224.6,0
			c0-9.84,0-19.31,0-29.62c6.74-1.75,13.73-1.1,20.5-0.72c7.3,0.41,12.7-1.47,17.15-7.57c4.89-6.7,12.69-11.98,15.47-19.31
			c2.78-7.32,1.07-16.4,1.07-24.7c0.04-83.89-0.05-167.78,0.15-251.67c0.02-6.8-1.52-12.14-6.46-16.87
			c-4.8-4.59-9.19-9.65-13.45-14.76c-2.83-3.39-6.08-4.62-10.44-4.47c-7.96,0.27-15.93,0.08-25.09,0.08
			c-1.11-10.27-0.43-20.08-0.46-31.35c55.13-2.73,109.82-5.44,165.94-8.22c0.2,4.06,0.54,7.86,0.54,11.67
			c0.04,54.93,0.02,109.86,0.02,164.79c0,54.93,0.15,109.86-0.16,164.79c-0.05,7.96,1.9,14.04,7.86,19.3
			c4.48,3.95,8.5,8.47,12.32,13.08c3.3,3.97,7.15,5.34,12.23,5.16C2934.29,1260.66,2943.25,1260.89,2953.79,1260.89z"/>
		<path d="M2262.26,1598.86c22.34,0,44.8,0,67.88,0c0,136.31,0,272,0,408.68c-22.69,1.13-45.16,0.32-67.38,0.54
			C2260.49,1999.78,2260.14,1609.47,2262.26,1598.86z"/>
		<path d="M3245.86,2007.62c-23.22,0-45.42,0-67.48,0c-2.22-7.7-2.61-398.07-0.41-408.77c22.34,0,44.8,0,67.89,0
			C3245.86,1735.16,3245.86,1870.86,3245.86,2007.62z"/>
		<path d="M2780.03,770.59c0.48-35.11,26.71-60.76,61.87-60.49c34.3,0.26,60.69,27.51,60.34,62.31
			c-0.34,33.71-27.68,60.3-61.66,59.96C2805.6,832.02,2779.55,805.44,2780.03,770.59z"/>
		<path d="M2176.15,0.21c5.66,0,11.36,0.42,16.98-0.1c8.66-0.79,15.43,2.6,21.81,7.93c21.22,17.75,27.85,49.43,15.44,74.56
			c-12.76,25.83-41.6,38.79-70.75,31.78c-26.79-6.44-45.14-30.19-45.29-58.53c-0.11-20.68,7.7-37.5,24.22-50.15
			c4.91-3.76,10.2-5.93,16.61-5.58C2162.14,0.5,2169.15,0.21,2176.15,0.21z"/>
		<path d="M3250.79,1435.14c0,28.81,0,57.22,0,85.58c-7.06,2.18-63.44,2.79-77.23,0.89c-2.28-7.02-2.78-74.31-0.51-86.47
			C3198.65,1435.14,3224.39,1435.14,3250.79,1435.14z"/>
		<path d="M2256.67,1521.87c0-29.23,0-57.69,0-86.78c26.1,0,51.61,0,77.1,0c2.26,6.98,2.77,75.26,0.54,86.78
			C2308.94,1521.87,2283.44,1521.87,2256.67,1521.87z"/>
	</g>
</g>
</svg>
