<?xml version="1.0" standalone="no"?>
<!DOCTYPE svg PUBLIC "-//W3C//DTD SVG 1.1//EN" "http://www.w3.org/Graphics/SVG/1.1/DTD/svg11.dtd">
<svg xmlns="http://www.w3.org/2000/svg" id="Layer_1" data-name="Layer 1" version="1.1" viewBox="0 0 969.6 513.5" width="969.5999755859375" height="513.5">
  <defs>
    <style>
      .cls-1 {
        fill: #000;
      }

      .cls-1, .cls-2, .cls-3 {
        stroke-width: 0px;
      }

      .cls-2 {
        fill: #fff;
      }

      .cls-3 {
        fill: #231f20;
      }
    </style>
  </defs>
  <path class="cls-3" d="M422,258c-.2.4-.6.8-1,1M431.1,186.5c1.1,0,1.9-.9,1.9-1.9s-.9-1.9-1.9-1.9-1.9.9-1.9,1.9.8,1.9,1.9,1.9ZM519.7,105.7h-68.9v55.6c0,5.4,2.3,10.1,5.5,11.5l26.5,15.8c.6.7,1.5,1.1,2.4,1.1s1.6-.3,2.1-.8l26.9-16.1c3.1-1.4,5.4-6.1,5.4-11.5v-55.6h0ZM473.7,121.8h-6v-14.3h6v14.3ZM469.4,126.8l.9-.9-.5-1h1.1c0,0,.7-1.1.7-1.1l.7,1.2h1.1l-.5.9.9.9-1.1.2v1.2l-1-.8-1,.8v-1.2l-1.1-.2h-.2ZM452.8,144.5v-13.5h7.2v13.5h-7.2ZM454,125h1.1c0,0,.7-1.1.7-1.1l.7,1.2h1.1l-.5.9.8.9-1.1.2v1.2l-1-.8-1,.8v-1.2l-1.1-.2.8-.9s-.5-1-.5-1ZM462.1,138.7h1.1c0,.1.7-1.1.7-1.1l.7,1.2h1.1c0-.1-.5.9-.5.9l.9.9-1.1.2v1.2l-1-.8-1,.8v-1.2l-1.1-.2.8-.9-.5-1h-.1ZM466.9,127.8c0-.4-.5-.5-.7-.5-.6,0-.9,1.1-1.4,1.1s-.7,0-.7-.4.8-.6,1.1-.9c-4.5,0-4.5,2-5.3,2-1.2,0,1-2.2,1.6-2.8-.9,0-1.4-1.3-2.4-1.8.5-.7.7-.4,1.3,0,0-.5.4-1,1.4-1,2,0,1.4,1.9,1.8,1.9s0-1.9,1.3-1.9c2,0,4.4,5.1,2.2,5.1s-.2-.7-.2-.9h0ZM461.8,112.9l.8-.9-.5-1h1.1c0,0,.7-1.1.7-1.1l.7,1.2h1.1c0,0-.5.9-.5.9l.9.9-1.1.2v1.2l-1-.8-1,.8v-1.2l-1.1-.2h-.1ZM460,107.6v14.3h-7.2v-14.3h7.2ZM473.7,181.1l-16.5-9.8c-2.8-1.9-4.1-5.2-4.5-9.2v-15.7h21v34.7ZM467.8,144.5v-13.5h6v13.5h-6ZM495,182.2l-7.6,4.5h-.1c-.5.4-1.2.7-2,.7s-1.5-.3-2-.7l-7.6-4.5v-35.8h19.4v35.8h0ZM495,144.5h-19.4v-37h19.4v37h0ZM517.8,162.1c-.4,4-1.7,7.3-4.5,9.2l-16.5,9.8v-34.7h21v15.7ZM517.8,144.5h-21v-37h21v37Z"/>
  <path class="cls-3" d="M472.6,159.2c0-.2-2.6.8-1.9.8,0-.8,1.5-2.3,2.1-2.8,0-.9-1.2,0-2.4.5,3.9-5.6,1.4-3.3-.8-2.9,3.5-3.8,2.6-3.7,0-2.5,2-1.6,2.4-3.5,2.1-4.1-1.9,2.5-3.7,2.1-3.7,4.5s-.6,4.1-1.4,5c-1,1.1-.2-4.2-2.9-4.2s-2.9,0-3.5,1c.5,0,1.4,1.4,1.4,2s.5,2.1-.4,2.1-2-1.9-2-2.9v-2c0-2.2-3.6-5.4-5.1-5.4,0,1.6,2,1.9,2,3.9-.9,0-2.1-1.6-2.1-.6s1.3,1.2,1.3,2-1.5-.3-1.5.6.8.7,1,1.5c-.6-.2-1.1,0-1.2.2,0,.3.2.6.6.9-.2.2-.4.7-.4,2,0,4.4,2.8,6.4,4.8,6.4s1.2-1,1.4-1.5c0,.7.8-.4.8.9s-1.4.8-1.4,1.9,2.2,0,2.2,1.7-.3,2.1-.3,2.9,2.3-.8,2.2-1c.6.2.5,1.8,1.6,1.8s.8-1.7,1.3-1.8c-.3,0,2.1,1.6,2.1.8,0-2-.8-1.2-.8-2.6s2.8-1,2.4-1.7c-.4-.5-.6-.2-.9-1.2,0,.2-2.2-3.3.5-1.5,2.9,1.9,3.2-4.3,3-4.6h-.1ZM546.1,173.7c1.2,0,2.3-.9,2.3-2s-1-2-2.3-2-2.3.9-2.3,2,1,2,2.3,2ZM537,179.2c1.2,0,2.3-.9,2.3-2s-1-2-2.3-2-2.3.9-2.3,2,1,2,2.3,2ZM428,191.7c1.3,0,2.3-.9,2.3-2s-1-2-2.3-2-2.3.9-2.3,2,1,2,2.3,2ZM435.1,192.3c1.3,0,2.3-.9,2.3-2s-1-2-2.3-2-2.3.9-2.3,2,1,2,2.3,2ZM631.2,97.3c3.4,4,4.1,10.4,1.7,15-1.3,0-1.1-1.8-1.3-2.8-2.4-4.5-4.3-10.2-2.2-15.3,1.6.2,1,2.2,1.8,3h0ZM343.5,102.8c-.7,2.9-.7,6.9,0,9.6-.6.6-.5-.6-1.1-.5-4.7-3.4-2.5-10-3.7-14.8.2-.4.8-.5,1.2-.2,2.2,1.4,3.1,3.5,3.6,5.9ZM641.5,103.1c.7,1.3-.6,2.7-1.6,3.3-1.1.2-2.3-.4-3-1.3-.4-1.3.3-2.5,1.4-3.1,1.2,0,2.4,0,3.1,1.2h0ZM336.1,108.4c-.2,1.1-.6,2.2-1.6,2.7-.7,0-1.8,0-2.3-.6-.7-.6-.8-1.7-.5-2.5.5-.8,1.4-1,2.3-1.1.8.4,1.7.6,2,1.6h.1ZM646.2,110.5c.2.7.2,1.2,0,1.9-.8,1.1-2,1.6-3.2,1.1-.8-.5-1.1-1.3-1.3-2.1.2-1,1.2-1.8,2-2.2,1.1,0,1.8.6,2.5,1.2h0ZM639.3,110.6c1,.5.3,1.7,0,2.4-.6.6-1.4,1.6-2.5,1.2-.6-.6-1.3-.6-1.6-1.5,0-1.2.5-2.4,1.7-2.8.9-.2,1.6.2,2.3.6h0ZM630.5,112.4c0,1.3,0,3-1.4,3.3-1.5.5-2.4-.7-2.8-1.7,0-1.2.6-2.4,1.8-2.9,1,0,1.8.6,2.4,1.3ZM349.2,113c.4,1.2-.8,1.9-1.6,2.5-.8.2-1.9-.5-2.4-1.3-.8-.8.2-1.6.5-2.3,1.2-1.1,3-.2,3.5,1.1ZM342,113.4c0,1-.5,1.9-1.3,2.3-1,.4-1.9-.4-2.4-1.1-.6-1.2.1-2.3,1.1-2.8,1.3-.5,2.2.7,2.7,1.6h-.1ZM601.5,113.9c1.2,2.5,2.2,5.6,2.4,8.7-.5,2.3.4,5.3-1.3,6.9-1.7-.6-1.8-2.7-2.9-3.8-2.2-4.2-.3-9.2.5-13.3,1-.4,1,.8,1.3,1.5ZM336.4,115.3c.4,1.5-.7,2.2-1.6,3-1.4.4-2.4-.7-3-1.7-.1-1.2.6-2.4,1.6-2.9,1.2,0,2.4.5,3,1.6ZM620.5,118.9c1.6,3.5,1.7,7.7.6,11.6l-.7.6c-1.7-3.3-4.1-6.3-4.9-9.8,0-2.5.5-4.8,1.4-6.9.8-.6,1.3,0,1.7.9,0,1.3.7,2.9,1.9,3.6ZM635.6,116.7c0,1.2-.6,2.5-1.8,2.9-1.2.2-2.4,0-2.8-1.5-.4-1.2.4-2.3,1.3-2.9,1.3-.7,2.7.5,3.2,1.5h0ZM342.2,120.4c0,1-.8,2.1-1.8,2.3-1,.7-1.7-.5-2.5-.8-.4-1-.6-1.8,0-2.8.4-.7,1.2-.7,1.9-1,1.1.6,2.2,1.1,2.4,2.3ZM347.4,119.8c.5,1.2-.8,1.8-1.3,2.4-1.4.5-2.1-.6-2.8-1.5-.2-1.2.5-1.9,1.3-2.7,1.4-.4,2.2.6,2.8,1.7h0ZM639,119.5c0,1.6-2.5,3.1-2.8,4.7-1.3,3.3-4.2,5.7-7.5,6.8-.7.6-1.7,1.5-2.8,1.6-.2-2.4,1.9-4.6,3.2-6.8,2.5-3.3,6-5.3,9.7-6.3h.2ZM339.7,124.5c1.8,2.1,2.8,3.9,4.9,5.7.1.5-.3,1.2-.8,1.2-5.9-.4-9.9-6.4-12.7-10.7.3-1.3,1.9-.2,2.8-.4,2,1.6,4.3,2.1,5.9,4.1h0ZM640.6,126.2c-.2,5.2-2.8,10.5-7.5,13.1-1.3.5-2.8,1.8-4.1,1,2.5-5.2,6.4-9.4,10.6-14h1ZM617.6,129.7c.4,1.8-.6,2.9-2,3.5-1.3.1-2.2-1-2.8-1.9,0-1.2.6-2.3,1.7-2.7.4-.4,1-.4,1.4-.4.7.2,1.1.8,1.7,1.5h0ZM333.1,130.8c2.3,1.6,4.3,3.8,6.5,5.7-1.6,1.1-3.5.1-5.3.1-4.1-1.4-6.8-5-11.1-6.2.1-1.3,1.7-.9,2.5-1.2,2.6-.2,4.8,1,7.3,1.6h.1Z"/>
  <path class="cls-3" d="M461.8,95c-6.7-2.7-11.2,4.4-18,3.5-.8.5-.6,1.3-1.1,1.9-.4.4-1,0-1.3,0-.4-2.9-1.3-5.6-1.7-8.4-.7-1.2-.4-2.9-1-4.1-3.9-10.5,9.4-2.5,12-8.7,2.3-5.3-4.4-5.9-6.5-9.7v-1.6c-1.9-1.9-4-2.5-5.2-5.1.8-3,1.2-6.3.4-9.3-.1-.7-.6-1.7-1.7-1.3-2.3,3.1-4,5.7-6.1,8.7-2.3-1.7-4.5-3.9-7.1-5.3-1.8-.2-3.5-2.1-5.5-1.3-.4.7,0,1.3.3,1.8.1,4.7,2.5,8.5,5.9,11.9l.4,1.8c-2.1,5-1.6,10.7-2.1,16-5.4,13.8-14.2,27.1-26.1,36.7-6.8,7.8-15,15.3-16.1,25.9-.4,1.7.2,3.8-1.1,5-4-1.5-7.9-3.4-11.2-5.9-5.5-3.9-13.5-3.4-17.1-10.4-1.4-2.8.4-5.6,1.7-7.6,4.1-3.9,3.5-10.8,1.3-15.5-.5,0-.6.5-1,.6-.4,7.2-6,12.1-3.9,20,.5,2.3,1.7,3.7,2.3,5.9-.8-.2-2-.2-2.8-.6-2.6-.4-5.3-1.5-8.1-1.1-5.5,2.5-13.1-.6-17.5,4.5-.7.1-1.7.3-1.4,1.3,2.6,0,5.2.7,7.8.6,4.2.7,7-2.8,9.9-4.4h.7c1.2-1.2,3.2-.5,4.8-.7,7.6.9,13.5,4.5,19.7,8.2v.5c-2.4,1.1-5.2,1.8-7.6,3.1-2.8,2.1-5.9,4.7-6.7,8.1-1.9,3,.6,5.7,1.8,8.2.1,1.2.2,2.7,1.3,3.1,3.9-4.1.3-9.2.8-13.9,1-3.6,4.3-5.3,7.8-6.3,6.9-2.9,11.8,2.7,17.3,5.8-.1,5.6.6,10.9-.6,16.3-1.7.6-3.8,1-5.6.9-9.5.7-16.9,5.9-25.5,8.8-3.9,1.3-8.4,1.2-12.3,2.7,3,.9,6.1-.2,9.2-.4,11.8-1.7,20.8-10.8,33.5-9.2l.3.4c-1.4,3-3.4,5.6-5.6,7.9-.4-1.3-.5-2.4-1.7-3.1-1-.5-2,0-2.8,1-.4.6-.4,1.3,0,1.8.6,1.1,1.6,1.3,2.6,1.7-.2,1.1-1.6,1.6-2.3,2.5-3.4,5.7-10.2,3.4-14.2,7.4-.6.8-2.8,1.3-1.8,2.7,4.6.5,9-.7,12.4-3.1,4.4-5,9.1-9.7,13.6-14.4.7,3.9-.4,7.9-2.6,11-1.1-.6-1.9-1.5-3.2-1.8-1.2.2-2,1.5-2.2,2.4.5.9,1,1.8,1.8,2.4-4.1,2.9-9.2,3.1-13.9,4.5-8.8,1.1-17.3,1.8-26.2,1.9-4.2-.2-9,1.2-13,0-4.6.8-9.5-.6-13.2,1.9-.5.6.1,1.2.1,1.8,5.5,3.6,13.1.7,19.3,1.8h47.4c3.5-.1,7-.3,9.7-1.8,6.1-3.5,9.5-9.8,12.6-16,1.2-2.2,2-4.7,2.5-7.3,1.2-4.1,4.9-7,9-7.4.6,6.3-.6,12.6-2,18.4-.7,3.9-3.2,7.6-1.7,11.7.4,1.9,2.4,1.9,4,2.2,14.5-.2,29.1-.9,44.5.2,2.8.5,5.2,1.3,8.2,1.2.2-.4,1.1-.5.7-1.2-.4-1.3-1.3-3-2.9-3.4-.2-.7-1.3-.5-1.7-1-7.7-4.4-16.9-2.1-26-1.9-4.7.5-9.4,1.3-13.3-1.3-1.8-2.2-.5-9.1-.5-9.1,0-2.7,6.6-21.8,7.4-23.4.3-1.8,1-3.5.7-5.6,1-2.4.7-5.6.7-8.2.5-3.9,2.4-7.5,3.7-11.3.7-1.8,1.3-3.7,2-5.6.7-2.3,1-4.5,2.4-6.3,3.9,2.5,7.8,2.4,9.6,6.9l1.7,10.1c0,.6.5,1.8,1.3,1.1,3.1-2.1,2.2-6.7,2.2-9.8.7-3.8-1.9-5.6-3-8.8-.8-.6-2.2-3.5-2.2-3.5-.5-2.7-6.3-4.5-5-7.8.7-2.8,1.4-5.3,4.1-6.9.4.3.6.6.6.9l1.5-1v-10.1c4,0,9.9.5,13.8.5,1.1.4,1.9,1.2,3.1,1.3l1-1.3,9.7-1.9c-4.1.5-6.6-4.3-10.6-4.3h.4Z"/>
  <path class="cls-2" d="M472.4,99.3c.3,0,.6,0,.9-.2l-.9.2Z"/>
  <path class="cls-3" d="M367.8,133c.1,1.4-.7,2.3-1.8,2.8-1-.4-1.7-.5-2.3-1.4-.5-1.3.7-2.3,1.7-2.8,1,.2,2.2.4,2.4,1.5h0ZM359.9,133c.7.7.8,1.9.5,2.8-.8.7-2.2,1.3-2.9.4-.7-.7-1.4-1.6-.8-2.5.8-.8,2.3-1.6,3.2-.6h0Z"/>
  <path class="cls-2" d="M527.2,134.3s0,.1,0,.2"/>
  <path class="cls-3" d="M618.8,136.4c.5,1.3-.6,2.3-1.6,2.8-1.2-.4-2.8-.6-2.8-2.2,0-1,1-1.6,1.8-1.8,1.1-.4,2,.5,2.5,1.2h0ZM625.2,136.2c.4.6,1.2,1.6.2,2.2-.5.4-.8.5-1.2,1-1.3.2-2.5-.2-2.9-1.4-.3-1.3.8-1.9,1.8-2.5.8-.2,1.4.4,2,.9v-.2ZM329.8,137.6c-.5,1.5-1.7,2.1-3.2,1.6-.3-.4-.7-1-1-1.6.1-.8.4-1.7,1.3-2.1,1.4.1,2.5.7,2.9,2.1h0ZM370.3,139.7c-.1,1-1.2,1.8-2,2.3-1.2.1-2-.8-2.6-1.7,0-1,.5-2.2,1.4-2.4,1.3-.5,2.8.5,3.2,1.8h0ZM363.2,138.8c.4.4.7,1.3.4,1.9-.7.6-1.8,1.7-3,1-.7-.6-1.6-1.1-1.3-2.3.5-.5,1.1-1.2,1.8-1.4,1-.2,1.4.4,2.2.8h-.1ZM643.5,140.3c0,1-1,1.9-1.6,2.3-1,.4-2,.1-2.7-.6-.7-.2-.5-1.2-.5-1.8.6-.8,1.4-1.3,2.3-1.6,1.1.2,1.8,1,2.4,1.7h0ZM651.2,141.4c-.4,1.1-1.2,2.1-2.3,2.2-.7-.1-2-.4-1.8-1.5,0-.8.5-1.7,1.1-1.9,1.2-.6,2.6,0,3,1.2ZM343.5,143.1c.2,1.5-.2,2.4-1.4,2.9-.8.5-1.7-.1-2.3-.6-.6-.6-1.1-1.6-.6-2.4.2-1.1,1.3-.8,2-1.3,1.1.1,1.7.6,2.3,1.4h0ZM349.4,144.1c.4,1-.7,1.3-1,2.1-.6.4-1.4.7-2.2.2-.8-.7-1.8-1.8-1-2.9,1-1.8,3.5-.8,4.1.6h.1ZM636.4,143.5c0,1.2-1,2.1-1.7,2.8-1.1.2-2.2-.5-2.4-1.5,0-1,.5-1.7,1.3-2.3,1.1-.1,2.2,0,2.8,1h0ZM646.3,145.5c-.3,1.1,0,2.3-1.3,3-1,.2-2.1.1-2.9-.5-.7-.6-.8-1.7-.5-2.5.6-1,1.7-1.7,2.9-1.4.8.5,1.1,1.1,1.8,1.4ZM338.9,148c.5,1-.6,1.2-1,1.7-.8.5-1.7.1-2.4-.2-.8-.5-.5-1.7-.4-2.3,1.1-2.1,3.2-.6,3.7.8h0ZM638.7,150.3c.5.1.3.9,0,1.1-2.9,1.5-7.2,1.8-9.7-.5-1.5-1.2-3.2-1.7-4.8-2.7.6-1.6,2.8-1.5,4.3-1.8,3.5.5,6.3,3.7,10.1,3.9h0ZM344.7,149.2c.2,1-.5,1.3-.7,2.1-.5.7-1.4.5-2.1.2-1.1-.7-1.6-2.1-.8-3,1.3-1.3,2.9-.6,3.6.7ZM355.2,150c.5,1.1-.2,2.1-1.2,2.7-.9.5-1.6-.2-2.3-.4-.6-.8-1.7-1.8-.6-2.8,1.1-1.8,3.2-.9,4.1.5ZM494.2,155.1c-.2,2.4-4.2-.3-3.7,2.9.6,2.3,1,5.1,2.4,6.8,1.1,1.6.6,4.1.5,6.1-1,1.7-2.8,3-4.6,3.9-3.4-.3-8.5,1.7-10-2.5-.7-1.8-1.9-3.7-1.9-5.8.3-.2.8-.2,1.1-.6,0-.8-.9-1.3-.8-2.1,3.9-.7-1.6-4.1,1.7-4.4,2.7,2.9,7.2,2,9.6,5.1.6.5,1,1.2,1.7,1.5-.5-2.9-1.8-5.8-2.3-8.9-.3-1.6.2-3.1,1.4-4,2.1-1.6,3.8.7,4.9,2h0ZM365.8,154.3c.4,1.2-.6,1.9-1.3,2.5-1.1.5-1.7-.7-2.1-1.3-.4-1.2.5-1.8,1.2-2.4.8,0,1.8.4,2.3,1.2h-.1ZM440,155.5c1.4,4.7,1,9.6-1.4,13.6-.1,1,.3,2.5-1.1,2.4-3.2-4.5-.8-10.8.5-15.5.2-1.2,1.7-1.7,2-.5ZM542.8,157.8c1.7,3.4,1.8,7.9.2,11.3l-1,1c-1.3-2.8-2.4-5.6-2.8-8.6.6-2.2,1.3-4.1,1.4-6.4,1.7-.4,1.6,1.8,2,2.8h.2ZM375.2,159.2c-.7,1.5-2.8,1.8-4.1,2.8-2.9,2.2-7.1,2.7-10.7,2.1,3.1-4.4,7.9-6.9,13.7-5.7.3.5.9.2,1.1.8h0ZM325.8,163.5c4.4,3.1,5.6,7.5,8.3,11.9.4.5,1.6.6,1.1,1.6-1,.7-1.9-.7-3.2-.5-4.6-2.1-7.5-7.1-7.3-12.5,0-.5.7-.5,1.2-.5h-.1ZM538.1,167.3c0,1.2,0,2.4-1.1,2.8-1.3.4-2.4-.4-2.8-1.5-.4-.8.4-1.3.6-1.9,1-1,2.6-.5,3.2.6h0Z"/>
  <path class="cls-3" d="M588.9,173.7c0-2.3.6-4.5.8-6.7.4-.7.6-1.6.5-2.5,2.9-3.9,8.8-2.7,13.3-2.3,1.8,1,4.1.9,6,1.3.9-.6,2.1-.7,3-.6,3.9-2.1,1.3-6.5,1.6-10l-1.5-3.6c-.4-.7-.7-1.6-1-2.4-.7-.8-1.2-2.4-1.9-3.3-2-5.3-6-8.3-9.4-12.6-6.1-8-15.7-12.5-25.4-15.6-9.5-3.3-19.1,1-27.6,4-2.6-.7-4-2.8-4.7-5.1-.5-4.6.5-9.1,2.3-12.8.4-3,2.4-5.3,3.2-8.1,2.2-6.8,4.4-13.4,4.9-20.8.2-4.5-3.1-7.6-6.5-9.6-2.3-.6-4.9-.5-6.6,1.3-1.6,3.3-4.9,5.4-7.8,7-.2,2.1,2.3.7,3.1,1.5,2.6.5,5.6-.4,7.8,1.3.2,4.8-2.5,8.8-5,12.5-4.1,6.1-8.4,12.2-10.9,18.9l-.5-.5.6,29.6c3.8,6.4,8.6,13.6,15.8,16.1,3.8,3.1,8.7,6.9,13.8,4.1,2.8-.8,3,3,4.3,4.6,1.4,4.5-1.8,7.6-2,11.7l-3.1,6.7c-3.6,7-6.8,14.5-12.4,20.5-1.8,0-2.9,1.9-4.7,2.1-1,1.3-2.9.4-4.1.8-3.7,1.6-9,.6-11.5,4.1.2.4.6.5,1,.6,7.3.1,15.5.6,23.3.2,1-.4,1.8-1.2,1.9-2.3-1.1-2.1.4-3.9,1.3-5.4.6-2.9,2.5-4.7,3.4-7.5,2.5-5,5.4-9.8,8.2-14.8l3.7-6.1c.8-2.1,2.3-4.6,3.7-6.8,1-1,1.4-2.1,2.2-3.3,0-1.2-.5-1.7-1.2-2.5.8-.9,2.2-.6,3.2-.9,3,1.8,6.1,4.7,6.7,8l1.1,3.1.5,1.5-.3,4,.5,3.7c.6,5.8-.5,11.7-1.1,17.5-2,7-10.1,6.3-15.9,7.9-1.4,1-4.2.5-4.2,2.9,7,1.5,15.1.6,22.6.5,1.2-.5,1.5-1.6,2.1-2.7.2-1.6,1.8-2.9,1.3-4.6-1.3-1.7,0-4.4-.5-6.7.2-.6.2-1.5,0-2.3.9-3.5.7-7.8,1.4-11.1l.5-4.6h.2ZM648,169c-3.8,5.4-7.9,11.6-14.7,13.6-.5,0-1,.2-1.2-.4,4.1-4.4,6.2-11.1,12.6-12.7,1-.5,2.3-1,3.2-.5h.1ZM319.9,174.9c-.6.5-.1,1.6-1.2,1.7-1,.5-2-.1-2.5-1.1-.5-1.2.6-2.4,1.6-2.7,1,.5,1.9.8,2.2,2.1h-.1ZM354.5,176.6c.4,1.1-.8,1.1-1.5,1.3-5,1.8-10.2.1-13.8-3.5,0-.5,0-1,.5-1.1,4.9,1.2,10.7.2,14.8,3.3ZM326.5,175c.2.5.4,1.3.2,1.8-.7,1.1-1.8,1.3-3,1.1-.7-.4-1.1-.8-1.6-1.6.1-1.2,1.1-1.9,2-2.3,1,.1,1.7.4,2.3,1h.1ZM439.1,175.6c.2,1.1-.7,1.8-1.4,2.3-1.1.2-2-.2-2.5-1-.4-.8,0-2.1.8-2.3,1.1-.2,2.8-.1,3.1,1ZM652.5,176.1c.4,1.2-.7,1.8-1.5,2.5-.7.4-1.6,0-2.3-.4,0-.6-.8-1.1-.6-1.9.5-1.1,1.6-1.6,2.8-1.5.6.5,1.1.6,1.7,1.2h-.1ZM660.5,175.6c.7,1.1,0,1.9-.5,2.8-.5.8-1.4,1.1-2.2.7-.7-.7-1.7-1.1-1.8-2.2,0-1,1.1-1.7,1.8-2.1,1.2-.5,1.7.7,2.7.7h0ZM314.9,179.1c.1.9-.6,1.3-.8,2.1-.6.2-1.2.7-1.9.5-.8-.4-1.4-1.1-1.8-1.9.2-1.1,1-2.1,2.2-2.4,1,.2,2,.7,2.4,1.8h-.1Z"/>
  <path class="cls-3" d="M568,179.1c.2.5,0,1.1,0,1.6-.7,1-1.7,1.8-2.9,1.2-.7-.7-1.6-1.5-1.2-2.5,1-1.3,3-1.8,4-.2h0ZM334.2,180.9c-.2.8-.6,1.7-1.7,1.8s-1.4-.8-2-1.3c0-1.1-.1-2.2.9-2.8,1.5-.5,2.8.7,2.8,2.3h0ZM322.7,181.2c.4,1.2-.5,2.1-1.2,2.7-1.4.5-2.6-.6-3.2-1.7.1-1.1.9-2.4,2.1-2.8,1.1,0,1.7,1.2,2.3,1.8h0ZM575.9,180.9c.2,1.2,0,2.4-1.3,2.9-1.4.5-2.6-.7-3.2-1.7.6-1,.7-2.3,2.2-2.5,1.1,0,1.8.5,2.4,1.3h-.1ZM328.3,181.4c.4.8-.4,1.2-.6,1.8-.6,0-1,.7-1.7.5-.5-.6-1.5-.9-1.6-1.7-.1-1.2.7-1.8,1.6-2.3,1.2-.1,1.9.7,2.3,1.7h0ZM645.9,182.4c-.4,1-1.1,1.5-2,1.9-1,.2-1.6-.6-2.3-1-.6-.5-.4-1.6,0-2.2,1.2-2.1,4.5-1.1,4.5,1.2h-.1ZM655.1,182.9c-.4,1.3-1.7,1.9-2.9,2.1-1.1-.5-2.3-1.3-1.5-2.8.5-.5.7-1,1.5-1.1,1.4-.5,2.5.6,2.9,1.8ZM598,183.7c.6,1.6-.8,2.1-1.8,2.8-.8-.1-1.5-.5-2.3-1-.2-1.3.4-2.5,1.7-3.1,1.1,0,1.7.5,2.4,1.3h0ZM564.9,185.2c.6.2.4,1.1.3,1.5-.7.5-1.7,1.7-2.8,1-.8-.5-1.4-1.2-1.2-2.3.6-1.3,3.1-1.4,3.7-.1h0ZM571.7,186c0,1,0,1.5-1,1.9-.8.8-1.8-.1-2.6-.4-.2-.5-.5-1.2,0-1.8.4-.5,1-.8,1.5-1,.9.2,1.8.2,2.2,1.2h0ZM367.8,186.1c.7.7-.1,1.6-.2,2.3-.6.7-1.9,1.3-3,.6-1.2-.5-1.1-2.1-.8-3,.7-.2.7-1.1,1.7-1.1,1.1.1,1.7.6,2.4,1.2h-.1ZM610.8,186.6c.3,1.2-.9,1.7-1.8,1.9-1.5.5-2.2-.6-2.8-1.6,0-.7.7-1.2,1-1.8,1.7-.7,2.8.5,3.6,1.5h0ZM604.4,186.6c.5,1.2-.8,1.8-1.3,2.4-.8.4-1.9.2-2.6-.5-.6-.4-.6-1.1-.6-1.8.7-.6,1.1-1.3,1.9-1.6,1.1,0,2.2.6,2.6,1.5h0ZM658.6,188.1c.2,1.7-1.9.8-2.8,1.3-5,3-11.5.7-16.3-1.1.4-1.6,2.2-1,3.1-1.6,5.2-3.3,10.5.7,15.6,1l.4.4h0ZM329.6,186.6l-.5.9c-4.4,2.7-10.2,4.5-15.5,2.8l-.5-.7c4.4-3.3,10.3-4.1,16.1-3.3l.3.4h.1ZM623.1,187.5c0,1-.5,1.8-1.2,2.3-1.2.4-2.8,0-3.1-1.3-.4-1,.6-1.9,1.5-2.3.8,0,2.3.1,2.8,1.3ZM351.2,188c-.5,1-.2,1.9-1.4,2.4s-2.6-.6-3-1.6c-.4-1.3.6-1.7,1.2-2.3,1.4-.7,2.5.4,3.2,1.5h0ZM342.6,188.6c.4.9-.4,1.3-.6,1.9-.6.7-1.7.6-2.4.4-.8-.7-1.7-1.6-1.3-2.9.7-.6,1.1-1,1.9-1.3,1.1.2,2.2.7,2.4,1.9h0ZM631.5,191.3c0,1.1-1,1.9-1.9,2.2-1,.1-1.8-.6-2.3-1.2-.4-.7-.2-1.7.5-2.3.3-.4,1.1-.4,1.6-.6,1.1.1,1.9,1,2.2,1.9h0ZM333.7,190c.4,1-.5,1.3-.6,2.1-.4,2.1-1.7,3.4-2.6,5.2-2.3,2.8-5.5,2.8-8.8,3.6l-.5-1c3.5-4.5,7.2-8,12.1-10.2l.4.2h0ZM625.5,192.7c.3,1.4-1,1.7-1.8,2.3-1.1,0-1.9-.6-2.4-1.5-.4-1.3.8-1.8,1.6-2.4,1.2-.2,2.3.6,2.6,1.6h0ZM347.5,192.7c-.1.2.1.5.4.6-.1,1.3-1.1,1.7-1.8,2.3-1.1,0-1.9-.4-2.6-1.2-.5-1.1,0-2.4,1.2-2.8,1.1-.1,2.5,0,2.9,1.1h-.1ZM647.6,196.3c1.2-.1,1.4-1.6,2.8-1.8,1.2-.2,2.3.5,2.9,1.3.5,1.5-.6,2.2-1.5,2.8s-2.7-.7-2.5.8c.9.6,1.6,1.5,1.7,2.4-.2.5-1.1.4-1.4.1-3.5-1.5-7.2-3.9-8.7-7.5-.5-1.1-2.8-1.9-1.4-2.9,3.5-.2,6.4,2.5,8.3,4.7h-.2ZM659.2,192.6c.6.6.4,1.7,0,2.3-.6,1.2-2.4.7-3.5.6-.6-.6-1.2-1.2-1-2.2.5-.7,1-1.2,1.8-1.6,1.1-.2,1.9.2,2.8.8h0ZM615.5,199.1c1.1,1.3,2.2,3.4,2.6,4.8-.2.4-.8.2-1.1.2-4.1-2.3-9.4-4.8-10.9-9.7-.4-.5-1.3-1.1-1.2-1.9,3.1-.6,6.1,1.7,8.3,3.4.9,1.2,1.8,1.8,2.3,3.2h0ZM340.8,194.5c.5,1.1-.5,1.9-1.1,2.4-1.3.2-2-.2-2.8-1-.9-1.3.7-2.4,1.7-2.9,1-.1,1.6.8,2.2,1.5h0ZM630.5,197.3c0,.7-.8,1.2-1.2,1.7-1,.1-1.9.5-2.8-.4-.2-.6-.8-1.6,0-2.2,1.3-1.7,3.2-.4,4.1.8h0ZM660.5,199c.3,1.5-.7,2.4-1.7,3-1.2.4-2.2-.5-2.9-1.1-.6-.7,0-1.5,0-2.3.9-.7,1.9-1.3,3.1-.8.5.4,1,.6,1.5,1.2h0ZM577.3,215.7c0,1.4-2.7,1.1-3.7,2.2-3.7,1.9-8.2,1.9-12.6,1.8v-.7c4.3-3.6,10.6-5,16.3-3.3ZM402,220.9c-.1,1.1-.7,1.7-1.8,2.1-.8,0-1.7-.5-2-1.2-.5-1.5.7-2.1,1.6-2.7,1.1.1,2,1,2.3,1.8h-.1ZM575.3,222.2c-.2,1.1-.6,2.3-1.8,2.8-1.1.2-1.8-.4-2.6-.8-.6-.5-.3-1.3-.4-1.9.8-2.2,4-2.2,4.8,0h0ZM599.2,222.7c-3,1.9-6.4,4.2-10.3,4.2h-6.5c0-.1-.6-.6-.6-.6,4-4.8,11.2-4.8,17.4-4.4v.7h0ZM369.1,225.6c0,1.1-.5,1.9-1.6,2.3-1.2.2-2.1-.2-2.5-1.1-.5-1.1,0-2.2,1-2.8,1.3-.8,2.6.6,3.1,1.6ZM375.1,226.8c.4.6-.2,1-.5,1.6-.7.4-1.7.6-2.3,0-.8-.5-1.1-1.3-.7-2.1.4-.7,1.1-.6,1.4-1.1.8.4,1.7.7,2,1.6h.1ZM329.1,239c-1.2,1.5-3.1-.4-4.5-1.1-4.2-2.4-4.1-7.1-8.3-9.9.5-1.4,1.6.1,2.4-.1.7.5,1.7,1,2.5,1.3,4.1,2.3,5.1,6.2,7.8,9.8h.1Z"/>
  <path class="cls-3" d="M679.4,192.1c-1.9-3.5-5.2-5-9-5-3.1.2-5.4,2.3-6.7,5-.7,2.7.3,5.1,2.3,6.7.8.4,1.9.2,2.4-.6.6-1.6-1.1-1.6-1.3-2.8-.5-1.7,0-3.1,1.3-4.2,1.2-1.2,3.2-.6,4.7-.6,1.5,1,2.9,1.8,3.6,3.5.7,2.1.7,4.4,0,6.4-1.3,3-4.3,5.4-7.5,6.1-10,1.4-119.4,1-119.4,1-12.9,1.2-27.5-2.4-38.6,4.4-5,2.4-7.6,8-8.9,12.9-3.2,2.9-6.7,6.3-9.4,9.6l-.4-.4c.6-2.9,1.9-5.5,2.5-8.4,1.8-2.4,1.8-5.7,3.1-8.4,4.6-7.4,8.9-14.9,16-20.1,3-4,8.3-3.3,12.8-3.3,4.9,2.3,10.7,3,16.7,2.4.2-.2.4-.5.4-.8-1.7-1.6-4.4-2.2-6.4-3.8-4.8-2.3-9.4.7-14.4.4-.2-.2-.5-.4-.4-.7,4.6-3.4,9.8-5.8,14.9-8,4.2-2.3,8.7-3.5,13.1-5.2,1.8,0,3.5-1.6,5.2-.5l6.4-1.7c.2.1.5.5,1,.4,5.4-1.8,12.2-.1,18.4-.2l.8.7,5.8,1.5c2.2.2,3.1,2.8,5.4,2.9,1.2-1.7-1.3-2.4-1.9-3.5,2.7-.6,5.7.1,8.1,1.2l-1.2,1.3c-.7,1.3.4,2.3,1.4,2.8.8.3,1.5-.4,2.1-.6,1.5-1.1,0-2.2.3-3.1,8.9,1.6,17.4,3.7,25.6,7.3,2.3.7,4.5,2.4,7,2.3-2.5-2.3-6-3.5-9.1-4.8-2-1.2-4.9-1.3-6.5-3,.4-.6,1.2-.4,1.6-.9,4.1-.5,7.6-3.5,10.5-6.8.2-.7,1.6-.5,1.5-1.5-1.1-1.2-2.9.4-4.4.2-5,1-7.2,6.9-12.2,8-6.1-1.5-12.4-2.9-18.5-4.5-3-.5-6.2-.7-9-1.9l-6.7-.6h-12.3c0-.2-.5-.4-.4-.7,4.3-1.1,8.1-3.6,12.4-4.7l32.2-14.8c3.4-3,6.4-6.4,9.1-9.9,0-1-.5-1.9-1.3-2.3-.9-.4-1.8-.2-2.4.5-1.4,1.1,0,2.4,0,3.7-1.4,1.9-3.7,3.6-5.5,4.7-.5-.1-33.2,14.9-33.2,14.9-4.8,2.1-9.6,4.3-14.7,5.4l-7,1.1c-.5,1.5-1.7,2.3-3,2.8-1.9.4-3.5,1.6-5.5,1.6-15.6,6.1-31.8,12.5-44.2,24.8.7-1.5,1.1-3.3,1.2-5.1-.2-1.8-.1-3.9-1.3-5.3-.3-.7-1.2-2.6-.9-3.3l-1.8,1.1c-1.1,2.7-2.1,7.5-1,10.3.4,2.2,2.2,4.7.5,6.7-5.8,7-9,15.5-12.9,23.5-1.4-.2-2.2-1.6-2.8-2.9,4.1-5.2,7.3-11,8.5-17.7.8-.6.3-2.2,1.1-2.9-.3-1.9,1.1-3.9.1-5.4.8-2.7-3.5-5.1-.8-6.8l-2.3,1.1c-5.2,6.8,2.7,17-3.2,23.5v.5c-1.7,2.2-2.5,4.4-4.8,5.8-2.9-1.2-4-4.5-5.7-6.9-2.6-2.5-2.6-7.7-1.1-11.3,1.1-3.5-.7-6.5-1.1-9.7l-1.2-.7c-2.9,3.7-4,9.7-1.7,14.2,1.2,2.2,1.3,5.2,3.1,7,1.1,3.5,3.2,5.8,5.2,9,.5,1.2-.7,1.5-1.3,2.1-1.3-.8-1.1-2.8-2.3-3.6-4-8.5-9.1-15.2-15.4-22.1-.3-1.1-1.3-2.1-.7-3.3,2.3-2.2,2.8-6.4,1.6-9.2-.2-.6-1-1.3-.8-1.9l-1.8-1.5c.2,4.2-2.5,8-1.3,12.5v.2c-12.4-9.3-26.1-17.6-40-24.2l-1.1,3.1c3.5.9,12.9,6.6,12.9,6.6,4.2,1.6,8,4.1,12,6.4,16.3,9.1,27.2,24.1,34.5,40.8.1,1.3,1.3,2.8.5,4.1-2.5-3.9-6.1-6.1-9.1-9.2-.8-5.7-4.2-11.1-9.1-13.4-1.8-2.7-5.6-2.9-8.7-3.8l-43.7-.2c-35.6-.5-68,1.1-103.3.5-4.9-.5-10.9-2.2-12.4-7.4-1-1.8-1-5,0-6.7,1.3-2.3,3.7-3,6.1-3.3,1.9.2,3.2,2.1,4.1,3.4,0,1.6-1.3,3-1.9,4.3.1.5.6,1.5,1.5,1.1,1.6-.6,2.8-2.3,3.1-3.9.1-.9.5-2.1-.4-2.7-.7-2.5-3.4-4.4-5.6-5-3-.2-6.1.6-8.2,2.8-2.9,2.4-2.8,6.8-1.9,10.2,1.9,5.3,7.6,9,13,9.7l116.9.5c11.4.6,24.3-1.3,35.8,1,4.2,1.3,8.6,4.5,9.7,9.2-.1.2-.5.1-.8.1-9.5-6.2-22-8.5-34.1-7-4.8-.2-9.1,1.6-13.5,2.8-2.3.5-4.4-.6-5.9-1.9-4.3-3.9-11.9-3.6-17.4-2.2,0,.4-.1.7.1.9,5.9-.5,9.4,4.6,14.7,5.2,1.2.2,2.2-1.1,3.2-.1-5.5,2.7-10.8,5.8-16.7,7.5-1.8-.4-2.8-2.1-4.2-3-2.3-2.5-6.5-1.5-9.6-1.7-1.1.2-2-.5-2.8,0,1,1.9,3.1,3,5.2,4,3,1.3,6.5-.1,9.2,1.7-.7.9-1.7,1.1-2.5,1.7-5.7,2.2-10.3,7.3-16.6,6.9-6.6.7-13.3-1.2-17.8-5.8-1.9-4.7-6.8-7.3-12.1-7-.4.2-.8.2-.7.9,2.6,1.6,4.7,4.7,7.3,6.5,1.7,2.1,4.9,0,6.5,2.3,2.3,1.6,5.2,2.9,7.8,3.4,1.9.8,4.1,1.2,6.2,1.7l-.8.5c-10.9,3.6-23.5,4-35.8,3.5-3.6-.1-7.1-1.2-10.7-1.1.6.7,1.8,1.3,2.9,1.7-1,.6-2,.8-3.2,1-1.4.4-3.1.5-4.6,1.2-1.9-.1-3.6.6-5.2,1.2-2,2.2-4.4,4.5-6.8,5.6,0,.5-.1,1.2.5,1.2,2.3-1,5.2-.2,7.4-1.2,4-.4,6.3-4.7,9.4-6.5,3.4-2.7,8.2-2.1,12.3-1.5,2.4.6-.2,1.6.5,3.1,1,.8,1.8,1.8,3.1,1.5.2-.2.5-.5.8-.6.7-1,.6-2.1.1-3,1.7-1.1,4,.1,5.8-.6,4.6-.1,9.1-1.1,13.6-1.2.7-.1,1.6-.8,2.3-.1-.4,1-1.6,1.1-1.1,2.4.2,1.1,1.4,1.6,2.4,1.8,1.2-.5,2.3-1.3,1.8-2.9-.2-.8-1.2-1-1.8-1.3,2.5-1.2,5.4-1.6,7.9-2.8,1.8-.4,3.5-1,5-1.7,1.6-.1,2.9-1.6,4.3-1-.6,2.1-1.5,4-2.5,5.8-1.9,6.4-3.4,14.9,0,21.1.4.1.5-.1.7-.2-2.5-6.4-1.1-13.8,1.1-19.9,1.7-10.3,12.3-13.3,19.8-17.2l.4.5c-2,5.3-5.1,10.4-4.6,16.8.2,1.1-.5,2.2,0,2.9,2.1-1.1,3.4-3.5,4.4-5.6.8-5.4-2.3-12.2,3.3-16.2,9.9-3.9,19.1-9,30.5-9.1.4.4,1.2-.3,1.3.5-2.4,2.7-5.9,5.2-7,8.5-3.9,5.3-3.7,14.4-2,20.9,1.1,3.8-2.2,5.8-3.7,8.7-.8,1-.9,2.8-1.7,4l2.4.3c2-2.2,4-4.8,4.1-8,.2,1.2,1.3,2.2,2.3,2.4.8-1.3-.7-2.3-.8-3.6,1.9-1.1,2.8,1.3,4.3,1.8,2.5.6,4.7,1.7,7.3,1.7l.8-.8c-2.6-4.1-7.9-4.8-12.5-5.1-2.4-4-2.4-9-2.2-13.8.5-2.5,1-5.2,2.4-7.5.6-1.7,2.3-3.3,3.4-4.6,2.2-2.1,4.9-3.5,7.6-4.1h.4c0,.2.1.4.1.4-3.2,2.5-3.6,6-5.5,9.2-2.1,3-3,7.1-1.1,10.5.7,1.6.4,4,2,5.1,1.6-2.2,1.7-5,2.5-7.4-.4-4-2.8-7.7-.5-11.6,1.2-3,3.7-4.2,6.5-5.3,6.6-.6,12.4,2.8,18.1,5.3,1.2.9,3.2,1.6,3.5,3.3-.1,3.3-1.9,6.5-4.5,8.1-3.2,1.9-7.9,2.2-10.9-.1-1.8-1.8-2.5-5-1.9-7.4,1.3-1.5,3.1-2.7,5.3-1.9,1.2.6,2.3,1.8,3.9,1.1.6-.4.8-1.3.5-1.9-1.3-.7-1.8-2.5-3.6-2.8-2.3-.4-5.1-.2-6.6,1.3-2.5,2.2-3.5,5.5-2.8,8.5.8,3.9,3.7,6.7,7.4,7.7,5.5,1.3,11.3-.4,14.8-5.1,1.4-1.6,1.8-3.3,2.6-5.2,5.8,3.5,10.1,9.7,12.4,16,0,2.1.6,4.2.1,6.1l4.2.4c-.3-1,0-2.1.4-2.9,1.6-8,6.5-14.6,12.4-19.9,2.1-1.2,1.6,1.6,2.1,2.4,1.8,4.6,6,7.9,10.5,9.2,5,.8,9.8-.4,13-4.2,1.6-2.9,3.5-7.1.8-10.2-1.7-2.1-4-3.1-6.6-3.1s-5.1,2.2-6.6,4.5c0,1,0,2.1.7,2.5.5,0,1.4.1,1.8-.6.3-1.8,1.8-2.7,3.2-3.6,1.3-.7,2.8,0,3.8.7,1.3,1.1,1.6,2.9,1.7,4.7-.3,2.3-1.8,4.7-4,5.7-3.5,1.8-8.6,1-11.5-1.1-1.4-1.6-2.3-3.4-3.4-5.3-.2-1.9-.9-3.6,0-5.6,5.3-3.1,10.8-5.4,17.2-6.1,2.5.5,4.7,2.2,6.4,4,5.5,5.7-1.2,13.8,2.6,20.1,1.4-.2,1.4-2.2,2.1-3.4,1.8-4.4-.5-9.1-1.6-13.3-1.4-2.7-2.3-5-4.6-7.1.6-.2.8-.2,1.4-.2,2.5,1.7,5.3,3.6,7.3,6.3,3.5,5.7,5.3,12.5,4.7,19.9-.9,3.6-4.8,5.3-7.8,6.7-1.2,1-2.6,2.4-3.2,3.9,1.4.8,3.5,0,4.9-.6,2.3-.9,3.6-3.8,5.2-5.1.2.1,0,.5.2.7,0,1.3-.6,3.1.6,3.5.6-1.7.7-4.1,1.1-6.2,1.6,1.7,1.8,3.9,2.3,6.1,1.1,2.2,2.9,5.1,5.7,5.5.7-1.1,0-2.2-.3-3.2-.4-3-2.9-4.6-4.6-6.8-4.2-5.8-2.3-14.9-5.5-21.4-1.2-3.5-3.7-6.1-6.5-9l.5-.5c5.9-.1,10.8,1.8,16.2,2.9,6.6,3.3,16.2,2.5,19.4,11.1,1.3,4.8,3.5,9.3,6.8,13.1l.4-.2c.7-1.2.7-3.3,0-4.5-.7-6-6-7.5-8.8-12.6l.4-.5c2.9.9,5.9,1.6,8.8,2.8,9.6,2.7,16.3,12.1,17.5,21.9,0,7.7-1.4,14.2-4.4,20.7-.4,1-2,2.1-1,2.9,1.3-1,1.6-2.5,2.3-3.6,4-6.7,6-15.9,4-24.3,0-1.6-1.9-2.8-1.1-4.4.6.7,1.3.8,2,1.1.7-.5,1.8-.5,2.3-1.3,0-.7.6-1.6,0-2.2-.7-1.1-2.3-1.1-3.5-.8-.6.7-1.3,1.7-1.4,2.7-1.2-2.1-2.4-4.7-4.3-6.4l.3-.4c5.4,1.8,10.3,4.5,15.9,5.9,1.2.7,2.5,1.3,4.2,1.3,4.7,1.8,9.9,2.5,14.8,3.7,3.6-.4,6.6,1.3,10.2.5v-.2h0c-1.3-1.6-4.2,0-5.8-1.2-8.3-.8-16.2-3-23.7-5.9,0-.4.6-.2,1-.2,1.2-.6,2-1.7,1.9-3-.6-.8-1.6-1.3-2.8-1.3-.7.4-1.7,1.2-1.8,2.1,0,1,1,2.1,1.8,2.3-.2.2-.7.1-1.1.1-3.7-1.7-7.3-3.3-10.9-5-1.3-.2-2.4-1.3-3.7-1.6-2.8-1.3-5.5-2.7-8.3-3.8-7.7-4-16.2-6.2-24.4-9.1-1.8-.5-3.5-1-5.2-1.5-3-.9-6-1.6-9-2.4-10.2-2.5-23.9-2.8-32.8,2.8-1.4-.5-2.3,1.8-3,.4,2.5-6.7,9.8-8.8,16.5-9.1,48.2-.5,93.4-.9,140.8-1.6,5.5,0,10.9-1.9,13.8-6.9,2-2.9,2.4-7.9.8-11.1v-.8ZM488.3,236.7c-.5,1.5-1.4,2.7-1.3,4.2l-.5.3c.4-1.8-1.4-2.9-1-4.8-1-1.5-1-3.3-1.8-4.8-1.1-1.9.9-2.8,1.8-4.1,1.7.7,2.3,2.3,3.5,3.8.7,2.1-.8,3.6-.7,5.6v-.2Z"/>
  <path class="cls-3" d="M618.7,229.1c0,.4.7.5.5,1.1-4.2,3.8-10.1,4.8-16.1,5.1-.5.1-1,.5-1.6.4-.4-.2-.5-.6-.2-.8,4.3-4.7,10.9-7.1,17.4-5.7h0ZM599.3,231.1c.5,1.7-.6,2.7-1.9,3.3-1.3-.1-2-1-2.6-1.9-.4-1,.5-1.5.8-2.1,1-1,3.2-1,3.7.7ZM370.9,231.3c.2.9.1,1.9-.6,2.5-.5.6-1.6.7-2.2.6-.8-.1-1.3-1.1-1.6-1.8,0-1.1.6-1.7,1.6-2.3,1,0,2-.1,2.8,1h0ZM349.4,239.2v.8c-2.9.6-5.6-.1-7.8-1.8-1.7-2.4-3.6-4.8-6.4-6,0-.4-.7-.9,0-1.1,6,0,9.6,4.8,14.2,8.1h0ZM636.9,231.2c-2.8,4.1-5.2,9.2-10.1,11-.8,0-1.6,1.2-2.3.4,1.9-4.6,6-9.6,10.7-11.5.5,0,1.2-.1,1.7.1h0ZM377.9,232.6c.1,1.3-.8,1.6-1.7,2.3-1,.1-1.4-.6-2-1.3-.5-1.2.6-1.7,1.2-2.3,1-.2,2,.5,2.5,1.3ZM652.1,233.3c-1.1,1.6-.6,3.9-1.7,5.6-2.4,2.8-4.5,5.9-8.3,6.5-.6-1.2.8-2.4,1.4-3.5,1.7-3.6,4.1-7.7,7.9-9.3l.6.7h0ZM312.1,234.4c.4.9.7,1.7,0,2.7-.7.6-1.8.8-2.8.5-1.1-.6-1.4-1.9-.9-2.9.7-1.1,2.9-1.7,3.7-.2h0ZM305.3,235.9c.1.6.5,1.1.4,1.7-.4.6-1,1.3-1.7,1.5-1.3.2-2.2-.5-2.8-1.6-.1-1.1.2-2.1,1.2-2.5,1.1-.5,2.3.1,2.9,1h0ZM319.4,236.6c.2,1,.5,2.7-1,2.9-1.7.7-2.6-.5-3.6-1.5,0-1.1.6-1.9,1.4-2.4,1.2-.1,2.3,0,3.1,1h.1ZM339.1,238.2c-.1.8.1,2.1-.8,2.3-.6.6-1.7.4-2.3.2-.2-.7-1.6-1.3-.8-2.2.5-.6,1-1,1.7-1.3.7.4,1.8,0,2.3,1h-.1ZM663.6,239c-.3.8-.8,1.9-1.8,1.9-1.1-.1-2.1-.2-2.7-1.3-.5-1.3.6-2.1,1.6-2.4,1.2,0,2.7.5,3,1.8h0ZM641.6,239.6c0,1-1,1.7-1.4,2.1-1.7.7-3.1-.5-3.7-1.8.3-1.1,1.1-1.8,2-2.2,1.6-.1,2.4.7,3.1,1.9h0ZM656.5,239.4c0,.9-.5,1.7-1.1,2.1-1,.4-2.2.2-2.9-.5-1.1-1-.2-1.8.5-2.5,1.1-.6,3.1-.5,3.5,1h0ZM309,241.5c.2,1.3-.2,2.5-1.4,3-1.1,0-2.3-.6-2.6-1.7-.1-1.1.2-2.2,1.2-2.5,1.2-.4,2.2.4,2.9,1.2h-.1ZM635.6,242.8c.4,1.3-.4,2.5-1.7,3.1-1,.2-1.6-.2-2.3-.8-.5-.6-1.1-1.9,0-2.5,1-1.8,3.4-1.1,4.1.2ZM373.6,244.1c.5,1.3-1,1.6-1.3,2.3-.5.2-1.5.4-1.8-.1-.6-.7-1.3-1.5-1-2.5.6-.5.8-1,1.6-1.2,1.3-.4,1.8.8,2.5,1.6h0ZM661.4,245c.2.9-.5,1.2-.6,1.8-.7.6-1.9.7-2.7.5-1.1-.6-1.1-1.6-1.1-2.7.7-.5.8-1.1,1.7-1.3,1.1,0,2.4.5,2.8,1.7h-.1ZM654,245.3c.5,1.5-.8,2.2-1.8,2.5-.5.1-1.2-.2-1.3.5,3.1,1.6,5,4.1,7.5,6.4v1c-4.3-.1-8.8-1.2-11.9-4.6-.8-.6-2.3-.6-3.2-1.5,1.6-1.6,4.5-1,6.6-1.1,1.6-1.7-1.8-2.9.2-4.4.7-.1,1.2-.9,2.2-.6.8.4,1.3,1,1.8,1.7h0ZM604.8,245.5c.2.6-.5,1.3-.6,1.9-.7.7-1.8.8-2.6.5-.6-.8-1.6-1.6-1.2-2.8,1-1.8,4.1-1.5,4.4.4h0ZM336.1,249.7c-.4,1.1-.8,1.8-2,1.9-1-.1-1.8-.5-2.2-1.5-.1-.8.5-1.3.6-1.9,1.3-1.1,3.7-.4,3.6,1.5ZM345.9,248.1c0,1.7-1.8,2.7-2.4,4.3-1.8,4-5,7.6-9.6,8-.5-1.1,1.6-2.4,2-3.5,1.9-4.1,5.8-6.3,9.3-8.8h.7ZM602,249.8c0,1.3-1.1,2.3-2,2.8-1.1.4-1.9-.5-2.5-1-1-1-.3-1.9,0-2.9,1.4-1.5,3.5-.2,4.4,1.1h0ZM609.4,250.7c0,1.3-1,2.3-2.2,2.7-.3-.4-.8-.1-1.2-.2-.8-.5-1.6-1.2-1.6-2.2.6-.6.8-1.6,1.7-1.7,1.1-.1,2.9,0,3.2,1.5h0ZM364.5,250.5c.1,1.3-.8,2.1-1.8,2.5-1.1.1-1.8-.6-2.3-1.4-.2-1.1.8-1.8,1.4-2.4,1.4-.5,1.8.6,2.6,1.3h0ZM372.8,251c-.4,1.1-1.1,1.8-2.3,2.1-.8-.2-1.8-.5-2.2-1.4-.1-1.2.8-1.8,1.7-2.4,1.2,0,2.5.5,2.8,1.8h0ZM635.2,259.5c.6.5,1.7,1.1,1.4,1.9-1.9.8-3.5-1.3-5.3-1.7-2.9-2.9-5-6.1-6.3-9.7,1.1-1.1,2.3.2,3.2.6,2.8,2.3,5.4,5.3,6.8,8.8h.2ZM639.7,251c.4.8.2,1.8-.3,2.7-.7,1.2-2.3,1-3.3.7-.6-.7-1.7-1.7-1-2.8.4-1,1.5-1.2,2.3-1.6.8-.1,1.5.6,2.3,1h0ZM383.8,254.2c.1,1,.4,2.4-.8,3-1.1.2-2.5-.1-2.9-1.5-.6-1.4.7-1.7,1.4-2.4,1-.2,1.6.2,2.3.8h0ZM609.1,262c1.7,2.4,2.9,5.4,3.1,8.6-.4.9.6,1.7,0,2.3h-.5c-5.4-3.9-6.6-9.3-8.7-14.8-.5-.2-.6-.7-.5-1.2,1.2-1.1,2.1,1.1,3.2,1.4l3.4,3.6h0ZM399.5,257.9c-.1.1,0,.2.1.2-4.8,3.4-11.5,5.4-17.1,2.2-.1-.4.1-1,.6-1.1,3.5-1.1,6.9-2.8,10.6-2.3l5.8,1h0ZM372.1,258.5c-4.1,2.5-7.8,7.5-12.8,8.7-1,.4-1.6,1.7-2.8,1,2.2-6.5,9.3-10.1,15.6-10.7v1h0ZM602,264c.4,1,0,2.3-1,2.5-.6.6-1.8.6-2.3,0-1.1-.5-1.1-1.6-1.1-2.4.4-.8,1.2-1,1.8-1.3,1.1.2,1.9.2,2.5,1.2h0ZM592,264.6c-.7,1.7-2.8,2.7-4.3,3.1-4.1,1.5-7.8-.5-11.4-1.4,0-1,1.3-.6,1.9-1.2,4-.9,8.1-1.7,12.3-.6.4-.2,1.2-.4,1.6.1h0ZM372.1,268.1c-.4.5-.5,1.6-1.4,1.9-.8.4-1.7,0-2.4-.5-.2-.7-1.1-1.3-.5-2.2.2-.8,1.2-1.1,1.9-1.3,1.2.1,2.2.8,2.4,2.1ZM379.2,269.2c-.4.7-.7,1.8-1.7,2.3-1,.2-1.7-.2-2.4-.9-.4-.7-.7-1.6-.4-2.4.3-.6,1.1-.7,1.7-1.1,1.2-.1,2.3,1.1,2.8,2.1ZM599.7,270.4c0,1-.4,1.6-.8,2.3-.6.8-1.8,1-2.7.5-.8-.1-1.1-1.1-1.4-1.7-.7-1,.5-1.6.8-2.4,1.3-1.1,3.5-.5,4.1,1.3h0ZM605,270.1c0,.6.5,1.2.2,1.7-.7.6-1.2,2.2-2.7,1.6-.7.2-1.1-.7-1.4-1-.5-1.2,0-3,1.4-3.3,1.1-.4,1.8.6,2.4,1h0ZM374.8,273.6c.2,1.3-.3,2.5-1.2,3.3-1.3.2-3,.2-3.5-1.3-.1-1.2,0-2.8,1.4-3.5,1.2-.1,2.6.1,3.2,1.6h.1ZM381.7,273.2c-.2,3.4-1,7.5-4.3,9.4-1.9.4-3.8,2.2-5.8,1v-.6c2.5-3.6,7.1-6.4,10.1-9.8h0ZM580.8,276c.5.7-.4,1.3-.7,1.9-.7.8-2,.5-2.9.1-.8-.4-1-1.6-.6-2.4.2-.7,1-1.1,1.6-1.3,1.1-.1,2.1.9,2.6,1.7h0ZM393.7,281.5c1.7,2.8.7,6.5,1.7,9.6-2,.2-2.9-2.1-4.2-3.3-2.7-3.6-2.3-8.5-3.5-12.7.2-.4.6-.4.8-.3,1.8,1.2,3.1,3.5,4.6,5.1-.2.8.7.8.6,1.6h0ZM586.8,276.9c0,1-1.1,1.2-1.7,1.8-.8-.1-1.5-.5-2.3-1.1-.4-1.2.6-1.6,1.2-2.2,1.2-.5,2.4.1,2.8,1.4h0ZM601.1,287.7c0,.4,0,1.1-.7.8h-.5c-3.5-3.1-7-6.7-6.5-11.5h.7c3.2,2.7,6.9,5.7,7,10.7ZM592.1,283.8c0,1-.5,1.7-1.1,2.3-1.3.4-3.4.3-3.6-1.6,0-1.2,1.2-1.8,1.8-2.4,1.4-.4,2.4.6,2.9,1.7h0ZM584.2,286.4c-1.7,4.5-6.3,6.8-9.4,10.2-.6-.4-.4-1.3-.3-1.8,1.2-4.6,4.8-9.1,9.3-10.9,1.9.2,0,1.6.4,2.5h0ZM593.2,290c0,1.1-1.1,1.6-1.7,2.2-1-.1-1.9-.4-2.6-1.3,0-1.2.8-1.6,1.6-2.2,1.2-.2,2.3.4,2.8,1.3h0ZM503.8,70.3c1.6,0,3,1.3,3,3s-1.3,3-3,3h-35.6c-1.6,0-3-1.3-3-3s1.3-3,3-3h35.6ZM478.6,75.4c3.5,0,.2-4.2-1.7-4.2h-3.5c-3.5,0-.2,4.2,1.7,4.2h3.5ZM493.2,75.4c3.5,0,.2-4.2-1.7-4.2h-3.5c-3.5,0-.2,4.2,1.7,4.2h3.5,0ZM503.9,71.2h-1.3c-3.5,0-.5,4.2,1.3,4.2s2.5-4.2,0-4.2ZM500.6,111.1l6.8,2.6,6.7-2.6-2.6,10,5.3-1.1-1.8,6.1,1.8,5.8-4.7-1.3,2,10.8-6.7-2.6-6.8,2.6,2.8-10.8-5.4,1.5,1.5-6.1-1.5-5.8,5.2.8-2.5-10h0ZM510.7,129.2c1.5,0,1.7-2.1,1.7-3.9,0-4.1-3.3,0-5-3.9-1.2,3.3-4.6.2-4.6,3.8s0,4.1,2.4,4.1h5.5ZM504,125.5c0,1.6,2.1.5,3.7.5s3.7,1.1,3.7-.5-2.1-1.5-3.7-1.5-3.7-.8-3.7,1.5ZM484.7,125.9v-1.3l-1.1-.2.9-.9-.6-1.1,1.2.2.7-1.3.7,1.3,1.2-.2-.6,1.1.9.9-1.1.2v1.3l-1.1-.8-1.1.8ZM479.4,132.7v-1.3l-1.1-.2.9-.9-.6-1h1.2c0,.1.7-1.2.7-1.2l.7,1.3h1.2c0-.1-.6.9-.6.9l.9.9-1.1.2v1.3l-1.1-.8-1.1.8ZM488.4,131.8v-1.2l-1.1-.3.8-.9-.5-1h1.2c0,.1.7-1.1.7-1.1l.7,1.2h1.1c0-.1-.5.9-.5.9l.9.9-1.1.3v1.2l-1.1-.8-1.1.8ZM489.5,136.9v-.7h-.7c0-.1.5-.7.5-.7l-.3-.5h.7l.4-.7.4.7h.6l-.3.5.5.6h-.6v.8l-.6-.4-.6.4ZM481.1,142.7v-2.2l-1.9-.3,1.5-1.6-1-1.8,2,.2,1.3-2.1,1.1,2.1,2.1-.2-1,1.8,1.6,1.6-2,.3v2.2l-1.8-1.4-1.9,1.4h0ZM485.4,28.5l4.2,10.5,10.7-3.2-5.4,9.8,9.1,6.5-11,1.8.7,11.3-8.3-7.6-8.3,7.6.6-11.3-11-1.8,9.1-6.5-5.4-9.8,10.7,3.2,4.3-10.5h0ZM446.6,262c-1.3.5-1.8.8-1.5,2.2l1.5,6.4c.3,1.2.4,3-.4,4.2-.9,1.4-2.9,2.2-4.4,2.6-1,.3-3.3.7-5.1,0-1.2-.5-2-1.1-2.5-3.2l-1.6-6.7c-.4-1.7-1-1.6-2.4-1.4v-.5c-.1,0,7.9-1.9,7.9-1.9v.5c-1.4.4-2.2.6-1.8,2.4l1.6,6.7c.3,1.1.9,3.9,4.3,3.1,4.2-1,3.5-4.1,3.2-5.4l-1.4-6.1c-.3-1.2-.7-1.8-2.8-1.4v-.5c-.1,0,5.1-1.3,5.1-1.3v.5h.1l.2-.2ZM458.5,263.3c-.7-1.3-2.7-3.3-5.5-2.7-1.3.3-2.4,1.2-2.1,2.5.2,1.1.8,1.4,3,1.8l3.8.7c.9.2,3,.9,3.4,3.1.4,1.8-.6,4.5-5,5.5-2.3.5-3.5,0-4.3.2-.5.1-.5.5-.6.8l-.7.2-1.1-5,.7-.2c.9,1.9,2.8,3.9,5.8,3.2,2.9-.7,2.5-2.7,2.5-2.9-.3-1.3-1.5-1.6-3.2-1.9l-1.7-.3c-4.5-.7-4.8-2.5-5-3.4-.3-1.2-.1-4.1,4.4-5.1,1.9-.4,3.2,0,3.9-.2.5-.1.6-.4.6-.9l.7-.2,1,4.4h-.7v.4ZM474.4,271.2l-8.7.8v-.5c1.7-.3,2.3-.4,2.1-2.1l-1-10.8c-1.7.3-4.2.6-4.4,3.9h-.7l-.3-4,14.6-1.4.4,4.1h-.7c-.8-3.2-3.3-3-5-2.9l1,10.8c.2,1.7.8,1.7,2.6,1.7v.5h.1ZM494.8,271.2h-5l-4.9-6.6h-.7v4c0,1.6.5,1.7,2.1,1.9v.5l-8.3-.2v-.5c1.7-.1,2.2-.2,2.2-1.8l.2-9.1c0-1.8-.7-1.8-2.1-1.9v-.5l7.9.2c1.7,0,6.9.3,6.8,3.8,0,2.5-2.6,3.1-3.9,3.4l4.8,6c.3.4.7.4,1,.4v.5h-.1ZM484.1,263.9c3.2,0,4.5-.4,4.5-3.1s-.9-3-2.9-3-1.4.2-1.6.8v5.2h0Z"/>
  <path class="cls-3" d="M510.9,273.3l-7.9-1v-.5c1.6,0,2,.1,2.1-.6,0-.5-.5-2.2-.8-2.9l-5.5-.7c-.9,1.4-1.4,2.2-1.4,2.5,0,.8,1.1,1,1.9,1.1v.5l-5-.6v-.5c1.4,0,1.8-.6,2.7-2.1l6.8-10.5h.7l4.1,11.5c.8,2.3,1.1,3.1,2.3,3.2v.5h0ZM504,267.5l-1.9-5.3-2.9,4.7,4.7.6h0ZM525.1,276.2l-13.9-2.6v-.5c1.5.1,2.2.2,2.4-1.1l1.8-9.8c.2-1.3-.7-1.6-1.8-1.8v-.5l8.5,1.5v.5c-1.8-.3-2.5-.4-2.9,1.4l-1.7,9.6c-.2,1,.3,1.2,1.9,1.5,3.6.7,5.3-.8,6.8-2.8h.7c0,.1-1.8,4.5-1.8,4.5h0Z"/>
  <path class="cls-3" d="M534.4,278.3l-8.4-1.8v-.5c1.4.2,2.4.3,2.6-1l2-9.7c.3-1.3-.8-1.6-1.9-1.9v-.5l8.5,1.8v.5c-1.2-.2-2.4-.4-2.7,1l-2,9.7c-.3,1.3.7,1.6,2,1.9v.5h0,0ZM551.4,280.5l-7.9-.8v-.5c1.6,0,2,0,2.1-.6,0-.6-.6-2.2-.8-2.8l-5.5-.6c-.8,1.4-1.3,2.2-1.3,2.5,0,.8,1.1,1,1.9,1.1v.5l-5-.5v-.5c1.4,0,1.8-.7,2.7-2.1l6.6-10.6h.7l4.3,11.4c.9,2.3,1.2,3,2.4,3.1v.5h-.2ZM544.5,274.9l-2-5.2-2.8,4.7,4.8.5ZM488.7,114.5c0-4.9-2.8-.3-4.3-4.5-1.1,3.6-4.5.6-4.5,4.4s.4,2.3,1.1,2.8v1.5c0,.4.3.7.7.7h5.3c.4,0,.7-.3.7-.7v-1.6c.6-.5,1.1-1.4,1.1-2.5h-.1ZM484.5,115.4c-1.4,0-3.4,1-3.4-.7s1.6-1.9,3.1-1.9,3.7-.5,3.7,1.9-1.9.7-3.4.7h0ZM531.7,175.1c1.3,0,2.3-.9,2.3-2s-1-2-2.3-2-2.3.9-2.3,2,1,2,2.3,2ZM521.1,101.9s-1.1,1.8-1.1,2.1c0,.7.5,1.2,1.1,1.2s1.1-.5,1.1-1.2-1.1-2.1-1.1-2.1ZM448.5,101.9s-1.1,1.8-1.1,2.1c0,.7.5,1.2,1.1,1.2s1.1-.5,1.1-1.2-1.1-2.1-1.1-2.1ZM466.7,101.9s-1.1,1.8-1.1,2.1c0,.7.5,1.2,1.1,1.2s1.1-.5,1.1-1.2-1.1-2.1-1.1-2.1ZM484.8,101.9s-1.1,1.8-1.1,2.1c0,.7.5,1.2,1.1,1.2s1.1-.5,1.1-1.2-1.1-2.1-1.1-2.1ZM502.9,101.9s-1.1,1.8-1.1,2.1c0,.7.5,1.2,1.1,1.2s1.1-.5,1.1-1.2-1.1-2.1-1.1-2.1ZM448.5,126.8s1.1,1.8,1.1,2.1c0,.7-.5,1.2-1.1,1.2s-1.1-.5-1.1-1.2,1.1-2.1,1.1-2.1ZM448.5,151s1.1,1.8,1.1,2.1c0,.7-.5,1.2-1.1,1.2s-1.1-.5-1.1-1.2,1.1-2.1,1.1-2.1ZM451.4,170.2s1.1,1.8,1.1,2.1c0,.7-.5,1.2-1.1,1.2s-1.1-.5-1.1-1.2,1.1-2.1,1.1-2.1ZM466.7,180.4s1.1,1.8,1.1,2.1c0,.6-.5,1.2-1.1,1.2s-1.1-.5-1.1-1.2,1.1-2.1,1.1-2.1ZM522,126.8s-1.1,1.8-1.1,2.1c0,.7.5,1.2,1.1,1.2s1.1-.5,1.1-1.2-1.1-2.1-1.1-2.1ZM522,151s-1.1,1.8-1.1,2.1c0,.7.5,1.2,1.1,1.2s1.1-.5,1.1-1.2-1.1-2.1-1.1-2.1ZM519.1,170.2s-1.1,1.8-1.1,2.1c0,.7.5,1.2,1.1,1.2s1.1-.5,1.1-1.2-1.1-2.1-1.1-2.1ZM503.9,180.4s-1.1,1.8-1.1,2.1c0,.6.5,1.2,1.1,1.2s1.1-.5,1.1-1.2-1.1-2.1-1.1-2.1ZM485.4,191.2s-1.1,1.8-1.1,2.1c0,.7.5,1.2,1.1,1.2s1.1-.5,1.1-1.2-1.1-2.1-1.1-2.1ZM514.9,155.1c.2.3.8.5,1.5.2l.7-2c0-.1-.8-.9-1.3-.8-1.9.5-4,.7-5.1,2.5,0,1.3.9,2.4,1.8,3,.7-.2.8.5,1.3.8,0,.6-.2,1-.8,1-1.4-1.4-3.8.5-4.8-1.3.5-1.7,1.4-3.7-.1-5.3.1-.3.7-.7.3-1-.6-1.6-2.3-.3-3.3-.3-1.7-.2-3.1.7-4.1,2.1.1.6.3,1.1.9,1.7.5-.1.7,0,.8.5l-1.1.7c.3.3.3.8.5,1.3-.8.3-1.6-.8-2-1.4,0-.9.1-2.5-1.1-2.8-.2,0-1,.3-1,.3-.3.4-.5,1.1-.5,1.9s.5,2.1.5,2.1c0,0,3.5,2.6,4.3,4.2-1,2.1-1,4.9-3.4,6.1-.7.5-.7,1.1-.7,1.8l.6.5c1.5-.8,4.3-1,4.1-3.6.6-1,1.1-2.2,2.2-3,1.1-.2,2.2.3,2.6,1.3-.3,1.7-1.5,2.9-3.1,3.4-.2.2-.1.6-.1.9.5.8,1.7.5,2.4.3,1.9-1.3,2.7-3.6,4.5-4.3.2,1.1-2.3,1.5-.7,2.7,1-.2,2.4.1,3.1-1.3-.8-1.9,2.7-2.9.6-4.6,0-1.7,1.8-2.4,1.7-4.3-.7-1.8-2.9-1.8-3.4-3.6.7-.5,1.7-.4,2.4,0l-.2.3ZM431.5,176c1.2,0,2.3-.9,2.3-2s-1-2-2.3-2-2.3.9-2.3,2,1,2,2.3,2ZM313.8,244.8c1.2,0,2.2-1,2.2-2.1s-1-2.1-2.2-2.1-2.2,1-2.2,2.1,1,2.1,2.2,2.1ZM388.7,261.4h-.1v-.2h-.2v.2h-.2v-.3h.2s.2,0,.2.1,0,0-.1.1v.2h.2ZM388.4,261.2h.1v.2-.2ZM389,261.2s0-.1-.1-.1h.1v.2c0,.2,0,.1-.2.1h-.1c0-.1,0,0,.2,0-.1,0-.1-.1-.1-.1,0,0,0-.1.2-.1h0c0,.1,0,0,0,0ZM389.8,261.1v.4h-.2v-.3h-.1v.3h-.1l-.2-.4h.2v.2-.2h.2v.2-.2h.2ZM389.8,261.4s.2,0,.2-.2c0,0-.1,0-.1-.1s0-.1.2-.1.2,0,.2.2-.1.2-.3.2h-.2ZM390,261.3v-.2h0v.2Z"/>
  <path class="cls-3" d="M390.2,261.2h.2q0,.2-.2.2h-.1.1c.1,0,0,0,0,0h-.1v-.2h.3-.2,0ZM527.1,99h-83.7v64c0,6.5,2.8,12.2,6.7,14l32.2,20.5c.7.8,1.8,1.3,2.9,1.3s1.9-.4,2.6-1l32.7-20.7c3.8-1.8,6.6-7.5,6.6-14v-64h0ZM524.8,163.9c-.4,4.8-2.1,8.9-5.4,11.2l-31.6,20.1h-.2c-.7.5-1.5.9-2.4.9s-1.8-.3-2.5-.9l-31.5-20c-3.3-2.3-5-6.3-5.4-11.2v-62.6h79v62.6h0Z"/>
  <path class="cls-3" d="M496.5,192.3l1-.5c-.4.2-.7.3-1,.5ZM433.3,279.8l-7.9.9v-.5c1.4-.3,1.9-.4,1.8-1,0-.5-1-2-1.4-2.6l-5.5.6c-.5,1.5-.8,2.4-.8,2.8,0,.8,1.3.7,2.1.6v.5l-4.9.6v-.5c1.2-.3,1.5-1.1,2-2.7l4.1-11.8h.7l6.7,10c1.3,2.1,1.8,2.7,3,2.5v.5h0ZM425.4,275.8l-3-4.7-1.7,5.2,4.7-.6h0Z"/>
  <path class="cls-3" d="M572,249.8c-1.5-3.7-4.5-6.3-8.2-7.5-3.8-.8-7.9-.2-10.4,2.7-4.3,3.5-1.3,9.3-1.2,14,0,1,0,1.7-.8,2.2-17.4-1.6-33.6-5.9-51-7.7-4-.7-8-.5-11.7-1.3l-4.8-.5c-15,.5-30,1.3-44.1,5-3,1-6.4,1.2-9.4,2.3-2.2-.4-4,1.2-6,.6l-4,.9h-1.3c-1.9-5,3.8-8,2-12.8-1.6-2.8-4.7-5.4-8.3-5-4.1-.5-7.7,1.8-9.6,5-2.8,6.1.7,12.3,1.8,18.3-.3,1.9,1.9,4.1,0,5.7-3.9-2.7-8.9-4.1-13.6-2.8-1.5.7-4.1-.2-4.8,1.5,5.2,2.8,11.8,2.4,17.5,2.2.7-.2,1.2-.4,1.8.1.5,3.1-.6,7.4,1.3,10.2,2.2,2.9,5.8,3.6,9.3,4,11.1-.4,20.9-3.6,31-6.2,1.6-.1,2.8-1,4.5-1,5.4-1.2,11.3-2.2,17.1-2.3-2.5,3.3-4,6.9-5,10.9-1.4,3.3,2.5,3.8,3.7,5.6-3.7,1.1-6.4,3.6-9.8,5.1-7.7-.2-14.2,2.7-21.4,3.5-.1,1.6,2.5,1.1,2.8,2.7-.4,1.1-1.4,1.2-2.3,1.8-.1.7,0,.8.7,1,.7-.9,2.3-.2,3-1.1,2.4,0,4.4-.7,6.7-.8,2-.9,4.3-1,6.1-2.4,2.5-.7,4.1-2.4,6.6-3.1,3.6,0,6.8-1.2,10.2-1.5v.7c-2.8,4.5-5.7,9.1-8.5,13.3-.5.9.1,1.7.8,1.9,1.7.5,3.4,0,4.7-.7,2.5-4.4,4.8-8.5,6.9-12.9.8-4.1,3.8-6.3,6.8-9.1.5-.2,1.2-1,1.7-.2-2.4,2.8-4,5.4-5.8,8.5-1,3.4-1.2,7.7,1.8,10.5,1.5,1.2,3.6.9,5.5,1,4.7-2.4,10.7,1.4,14.3-3.1,2.2-.4,2.5,2.2,3.7,3.4,2,.6,4.2,2.7,6.2,1.2-.1-1.3-1.6-2.5-2.3-3.7-1.4-2.5-3.2-4.6-4.6-6.9-.6-1.7-1.7-2.8-1.9-4.5,2.2.7,4.1,2.2,6.5,2.5,2,.8,4.6.7,6.5,1.9,1.6,2.1,4,3.3,6,4.6,3,1.5,6.4,1.7,9.5,2.9,1.2.1,3,1.1,3.8,0-.5-.6-1.1-1-1.8-1.3-.4-1.6,2.2-.7,3-1.9-.3-.6-.8-.8-1.4-.9-1.7-.9-6-1.2-7.1-1.9-1.4-.2-2.8-.8-4.2-1.3-7.2,0-11.2-6.5-16.9-8.9,1.3-1.2,3.4-2.2,4.2-4,1.1-1.7,1.4-4.5.4-6.4-1.1-3.8-5.9-3.3-8.7-5.3l.4-.4c4.7-.2,8.8.8,13,1.7,11.5,1.6,22.2,5.9,34.3,6.2,6.6,0,14.9.4,18.1-6.1.6-3.8,1.3-7.5,1.9-11.3,1.4-6.1,5.4-11.6,4.8-18.3v-.5ZM442.3,305l-1.7-1.6c.8-1.1,2.7-.5,4-1.2,3.1-1,6.7-2.2,10.2-1.5-3.6,2.9-8.3,3.3-12.5,4.2h0ZM517.3,303.1c2.9,1.3,8.6,2.6,12.8,3-.4,1.6-3.3.1-2.9,2.4-3.7-1.5-8-2.2-10.8-5.1.2-.1.5-.5,1-.4h0ZM404.5,251.6c.4-2.2.8-4.5,2.9-6.1,2.9-1.6,6.9-1.2,9.5.4.8.5,1.5,1.2,1.9,2.3.6,2.1-.4,4.2-1.8,5.5h-1.2c0-1.9,0-3.9.7-5.5-.1-1.4-1.3-1.6-2.3-2.2-2.1-.6-3.9.4-5.4,1.2-1.2,1.5-2.3,3.3-1.6,5.3.8,1.3.1,3.1.6,4.6l-.4.5c-1.4-1.6-3.4-3.3-3-6h0ZM410.2,255.1c1.8,1.3,4.3.7,6.5,1.1.4,1.3.4,3-.6,4.1-2-.5-4.7-.2-5.8-2.2.3-.8-.4-2.1-.1-3ZM409.8,251c.4-1,0-2.4,1.3-2.7.8-.2,2.2-.2,2.3.7-.1,1.5-.2,2.9-.6,4.2-1.7.1-2.5-.9-3-2.3h0ZM466.2,289.9c-.6-4.2,1.1-7.9,3.9-10.9,1.7-.4,3.6-.7,5.2.2-3.1.9-7.1,1.6-7.8,5.6.1,1.6-.4,2.4.3,3.7,1.3,2.3,4.3,1.3,6,3.1,0,.6-.5,1.3-1.1,1.4-2-1.2-4.6-1.7-6.5-3.3v.2ZM461.8,298.2c2.9-1.2,5.9-3.7,9.1-2.7-2.3,1.8-6,2.5-9.1,2.7ZM473.3,299.4c-1.7,3.9-3.6,7.6-5.9,11.4-.2.6-1.2.7-1.9.9,0-1.7,1.7-3,2.4-4.5,2.5-3.3,3.2-6.8,6.1-9.9.7.7-.7,1.2-.7,2.2h0ZM476.3,292.4v.5h-.2v-.5c0-.1.5-.1.5-.1-.1,0-.3,0-.5.1h.2ZM475.2,289.1c-2-.2-4-.8-5.8-1.4-1.2-1.2,0-2.5,0-3.9,1.7-2.7,6.5-4,8.8-1.6-.4,2.7-1.3,5-3,6.9ZM477.8,289.1c.4-1.6,1.1-3.6,1.9-5.1-.1,1.6-.8,3.7-1.9,5.1ZM479.1,279.3c-1.6-.4-2.4-2.2-4.1-2.2,1.4-.5,2.9-.4,4.6-.1.6.9-.4,1.6-.5,2.3h0ZM480.6,283h-.1v-1.3h.1v1.3ZM480.7,288.5c-.1-.5.2-1.1.4-1.7.6-.6,1.2.5,1.4.9-.4.6-1.1,1-1.8.8h0ZM482.5,281c.6-1.7.7-3.1,1.8-4.5,1.2,0,2.3,0,3.2.5.2,2.4,3.2,5.7,0,7.7-1.1.5-2.7,1.6-3.8.5-1.6-1.3-1.8-2.5-1.2-4.2ZM491.3,277.6c-.3-1.1,1.1-.2,1.6-.7l3.7.2c-1.9-.2-4.3,4.2-5.3.5h0ZM497.3,279.2c-1.4.5-2.5,2.2-4,2.5.7-1.3,2.5-2.7,4-2.5ZM492.2,286.7v.4h-.1v-.4h.1ZM492.5,294.1c-.1.2.1.6-.2.9l-2.8-2.2c1.3-.2,2.3.4,3,1.3h0ZM489.2,290.4c.2-.2.9-.2,1.1,0h-1.1ZM487.6,288.5c.5-.7,1.1-1.8,1.9-1.8,0,.1.1.2.3.4-.7.6-1.3,1.2-2.2,1.4h0ZM484.8,288.3h-.5l.7-.7c.4.2-.1.5-.3.7h0ZM485.2,292.9c1.6-1.7,3,1,3.6,2.3,1.8,2.7,6.5,5.1,4.7,8.7-2.3,2.1-5.9.1-8.4,1.7-1.3-.1-3.6.2-4.3-1.1,1.3-3.9,2.5-8.2,4.4-11.6h0ZM481.8,295.2l.6-1c-1,2.9-2.4,5.9-4,8.7-.7-2.9,2.3-5.2,3.4-7.7ZM487.1,309.6c-2.3.1-5.8,1.5-7.9-.5.1-1-.9-1.5-.8-2.4,1.9-.7,3.6,1.6,5.4-.1,2.8.1,5.6-.4,8.4.2,1.3.4,3.4-2.2,3.6.4-1,4-5.8,1.2-8.6,2.4h-.1ZM494,292.2v-.4h.2v.4h-.2ZM494.8,299.8c.1,1.2,1.3,1.7.6,2.8-.2-.5-1-1.6-.6-2.8ZM498.1,307.1l-.6.2c-.6-.5-.3-1.8-.2-2.5.7.6,1.3,1.5.8,2.3h0ZM504.1,310c-.1.4-.7.4-1,.1-3.6-4.6-5.3-9.4-7.6-14.5h.5c2.9,4.6,5.2,9.8,8.1,14.4ZM508.6,298.8c-.3.1-.3.4-.3.5-3.5.1-5.8-1.9-8.4-3.8v-.6c3.1.2,5.8,2.3,8.7,3.9h0ZM505.5,282.7c1.4.4,1.6,1.9,1.7,3.1-.1,2.7-1.6,5-4.1,5.9-1.3.7-3.4,1-4.7.5,2.9-.1,6-1.2,7.2-4.1v-5.4h-.1ZM502.8,282.3c.6,1.7,1.7,3.3,1.1,5.3-1.2,2.3-3.6,2.3-5.8,2.8-1.1.1-1.9-.2-2.8-.8.1-.5-.1-.9-.5-1.2.4-1.6-2.8-3.1-.6-4.5,1.9-1.8,6.5-5.9,8.5-1.6h0ZM563.9,273.4c-1,1.2,0,3.1-1.3,4.2,0,2.2-1.8,3.3-3.4,4.1-14.3,3.1-28.4-1.7-42.2-4.1-19.3-4.2-41.9-5.4-61.6-1-9.3,1.7-18.3,3.9-27.2,6.4-5.5.7-11.5,1.6-16.8-.1-4.3-2.1-2.5-7.6-3.9-11.5.2-3-.8-5.5-.9-8.4-.4-1-.6-2.2-.5-3.2,1.8.3,3.6,1.6,5.5,2.1,10.1,1.9,19.1-1.3,28.5-3,9-1.9,18.3-3.5,27.8-4.2,10.8-.1,21.9-.7,32.2,1.1,3.4.1,6.3,1,9.5,1.2,6.7.9,13,2.7,19.8,3.2,1.1.4,2.4.4,3.6.6,10.8,1.7,23,4.7,33.3,0,0,4.3-1.8,8.3-2.4,12.6h0ZM560.5,258.6c0,1.9-1.7,1.5-2.6,2.2h-2.9c-.6-1-.4-2.4-.4-3.4,1.9.4,4.1.4,5.9,1.2h0ZM559.2,255.6c1.3-1.3-.4-9,3.4-4,0,1,0,2.4-.9,3.1-.6.5-1.6,1.4-2.5.8h0ZM568.9,254.4c-1.1,2.2-2.8,3.8-5.2,4.1,0-2.9,2.8-5,1.8-8.2-1.6-2.3-4.7-3-7.6-2.4-1.1.7-.6,1.9-1,3l-.5,4c-2.4,0-2.5-2.2-3.2-3.9,0-2.5,1.2-5.1,3.7-6.3,1.9-1,5-.8,7,.2,1.6.4,3.4,1.1,4,2.5,1.8,1.7,1.3,4.7,1,6.9h0Z"/>
  <path class="cls-1" d="M81.8,373h-15.9l-1.9,4.4c-.6,1.5-.9,2.7-.9,3.6s.5,2.2,1.5,2.8c.6.4,2.1.6,4.4.8v1.2h-15v-1.2c1.6-.2,3-.9,4-2s2.3-3.4,3.9-6.8l16.1-36h.6l16.3,37c1.6,3.5,2.8,5.7,3.8,6.6.8.7,1.8,1.1,3.2,1.2v1.2h-21.8v-1.2h.9c1.8,0,3-.2,3.7-.7.5-.4.7-.9.7-1.5s0-.8-.2-1.2c0-.2-.4-1-1-2.5l-2.4-5.6h0ZM80.7,370.6l-6.7-15.5-6.9,15.5h13.6ZM134.5,354.8v24.4c0,2.4.2,3.9.7,4.4.4.6,1.3,1,2.7,1.1v1.2h-12.7v-4.2c-1.5,1.8-3,3.1-4.5,3.9s-3.2,1.2-5,1.2-3.3-.5-4.7-1.6c-1.4-1.1-2.3-2.3-2.7-3.8s-.7-4-.7-7.6v-12.3c0-2.4-.2-3.8-.6-4.4s-1.3-1-2.7-1.1v-1.2h12.7v21.3c0,2.2,0,3.6.3,4.3s.5,1.1,1,1.5c.5.3,1,.5,1.6.5s1.5-.2,2.2-.6c.9-.6,2-1.7,3.2-3.5v-16.6c0-2.4-.2-3.8-.6-4.4s-1.3-1-2.7-1.1v-1.2h12.7l-.2-.2ZM161.6,353.9l.5,10.6h-1.1c-1.4-3.1-2.8-5.3-4.2-6.5-1.5-1.2-2.9-1.7-4.3-1.7s-1.7.3-2.3.9-1,1.3-1,2.1.2,1.2.7,1.7c.7.9,2.7,2.5,6,4.7s5.4,4.1,6.4,5.6,1.5,3.3,1.5,5.2-.4,3.4-1.3,5.1-2.1,2.9-3.7,3.8c-1.6.9-3.3,1.3-5.2,1.3s-3.5-.5-6-1.4c-.7-.2-1.1-.4-1.4-.4-.7,0-1.3.6-1.8,1.7h-1.1l-.5-11.2h1.1c1,2.9,2.4,5.1,4.1,6.6,1.7,1.5,3.4,2.2,4.9,2.2s1.9-.3,2.6-1,1-1.4,1-2.4-.3-2-1-2.8-2.2-2-4.5-3.5c-3.4-2.4-5.6-4.1-6.6-5.4-1.5-1.8-2.2-3.8-2.2-6s.8-4.6,2.5-6.5,4-2.9,7.2-2.9,3.3.4,4.9,1.2c.6.3,1.1.5,1.5.5s.7,0,1-.2c.2-.2.6-.6,1.2-1.4h1.1ZM180.3,343.4v11.4h7.4v3.3h-7.4v19.2c0,1.8,0,3,.2,3.5s.5.9.9,1.3c.4.3.8.5,1.2.5,1.4,0,2.8-1.1,4.1-3.3l1,.7c-1.8,4.3-4.7,6.4-8.8,6.4s-3.6-.5-5-1.6-2.2-2.3-2.6-3.7c-.2-.8-.3-2.8-.3-6.1v-16.8h-4.1v-1.2c2.8-2,5.2-4,7.1-6.2,2-2.2,3.7-4.6,5.1-7.3h1.2ZM203.1,354.8v7.1c2.1-3.2,3.9-5.4,5.4-6.4,1.6-1.1,3.1-1.6,4.5-1.6s2.2.4,3,1.1c.7.8,1.1,1.8,1.1,3.2s-.4,2.6-1.1,3.5c-.7.8-1.6,1.2-2.6,1.2s-2.2-.4-3.1-1.1-1.4-1.2-1.5-1.3c-.2-.1-.5-.2-.8-.2-.6,0-1.3.2-1.8.7-.9.8-1.6,1.8-2.1,3.2-.7,2.2-1.1,4.5-1.1,7.1v9c0,1.3.1,2.1.3,2.4.3.6.7,1,1.2,1.3s1.4.4,2.6.5v1.2h-16.8v-1.2c1.4-.1,2.3-.5,2.7-1.1.5-.6.7-2.3.7-5v-17.2c0-1.8,0-2.9-.3-3.4-.2-.6-.5-1.1-1-1.4-.4-.3-1.2-.5-2.2-.6v-1.2h12.7l.2.2ZM237.1,381.3c-3.8,3.4-7.2,5-10.2,5s-3.3-.6-4.4-1.7-1.8-2.6-1.8-4.4,1-4.5,3.1-6.4c2-1.9,6.5-4.4,13.3-7.6v-3.1c0-2.4-.1-3.8-.4-4.4-.3-.6-.7-1.1-1.4-1.6s-1.5-.7-2.4-.7c-1.4,0-2.6.3-3.6,1-.6.4-.9.9-.9,1.4s.3,1,.9,1.7c.8,1,1.3,1.9,1.3,2.8s-.4,2-1.2,2.8-1.9,1.1-3.2,1.1-2.6-.4-3.5-1.3c-.9-.8-1.4-1.8-1.4-3s.6-3.1,1.9-4.6,3-2.6,5.3-3.3c2.3-.8,4.6-1.2,7.1-1.2s5.3.6,7,1.9,2.8,2.6,3.3,4.1c.3.9.5,3.1.5,6.4v12.1c0,1.4,0,2.3.2,2.7.1.4.3.6.5.8.2.2.5.3.8.3.6,0,1.2-.4,1.8-1.2l1,.8c-1.1,1.6-2.3,2.8-3.4,3.6-1.2.7-2.5,1.1-4,1.1s-3.2-.4-4.2-1.2c-1-.8-1.6-2.1-1.8-3.8h-.2ZM237.1,378.9v-10.4c-2.7,1.6-4.7,3.3-6,5.1-.9,1.2-1.3,2.4-1.3,3.6s.4,1.9,1.1,2.7c.6.6,1.3.9,2.3.9s2.4-.6,3.9-1.9h0ZM265.7,340.7v38.7c0,2.2.3,3.6.8,4.2s1.5,1,3,1v1.2h-16.8v-1.2c1.4,0,2.4-.4,3.1-1.2.4-.5.7-1.9.7-4.1v-32.2c0-2.2-.3-3.6-.8-4.2-.5-.6-1.5-1-3-1v-1.2h13ZM284.1,354.8v24.7c0,2.2.3,3.6.8,4.2s1.5,1,3,1v1.2h-16.8v-1.2c1.4,0,2.4-.4,3.1-1.2.4-.5.7-1.9.7-4.1v-18.2c0-2.2-.3-3.6-.8-4.2s-1.5-1-3-1v-1.2h13,0ZM279.5,339.7c1.4,0,2.7.5,3.7,1.5s1.5,2.2,1.5,3.6-.5,2.6-1.5,3.6-2.2,1.5-3.6,1.5-2.6-.5-3.6-1.5-1.5-2.2-1.5-3.6.5-2.6,1.5-3.6,2.2-1.5,3.6-1.5h-.1ZM307.6,381.3c-3.8,3.4-7.2,5-10.2,5s-3.3-.6-4.4-1.7-1.8-2.6-1.8-4.4,1-4.5,3.1-6.4c2-1.9,6.5-4.4,13.3-7.6v-3.1c0-2.4-.1-3.8-.4-4.4s-.7-1.1-1.4-1.6-1.5-.7-2.4-.7c-1.4,0-2.6.3-3.6,1-.6.4-.9.9-.9,1.4s.3,1,.9,1.7c.8,1,1.3,1.9,1.3,2.8s-.4,2-1.2,2.8c-.8.8-1.9,1.1-3.2,1.1s-2.6-.4-3.5-1.3c-.9-.8-1.4-1.8-1.4-3s.6-3.1,1.9-4.6,3-2.6,5.3-3.3c2.3-.8,4.6-1.2,7.1-1.2s5.3.6,7,1.9,2.8,2.6,3.3,4.1c.3.9.5,3.1.5,6.4v12.1c0,1.4,0,2.3.2,2.7.1.4.3.6.5.8.2.2.5.3.8.3.6,0,1.2-.4,1.8-1.2l1,.8c-1.1,1.6-2.3,2.8-3.4,3.6-1.2.7-2.5,1.1-4,1.1s-3.2-.4-4.2-1.2c-1-.8-1.6-2.1-1.8-3.8h-.2ZM307.6,378.9v-10.4c-2.7,1.6-4.7,3.3-6,5.1-.9,1.2-1.3,2.4-1.3,3.6s.4,1.9,1.1,2.7c.6.6,1.3.9,2.3.9s2.4-.6,3.9-1.9h0ZM336.8,354.8v4c1.6-1.7,3.1-3,4.6-3.8s3-1.2,4.7-1.2,3.7.6,5,1.7,2.2,2.5,2.7,4.2c.4,1.3.5,3.7.5,7.3v12.1c0,2.4.2,3.9.6,4.5s1.3,1,2.7,1.1v1.2h-15.7v-1.2c1.2-.2,2-.6,2.5-1.5.4-.6.5-1.9.5-4.1v-13.8c0-2.6,0-4.2-.3-4.8-.2-.7-.5-1.2-1-1.5s-1-.5-1.6-.5c-1.9,0-3.7,1.4-5.3,4.1v16.7c0,2.3.2,3.8.6,4.4s1.2,1,2.4,1.2v1.2h-15.7v-1.2c1.3-.1,2.2-.6,2.8-1.3.4-.5.6-1.9.6-4.3v-17.6c0-2.4-.2-3.8-.6-4.4s-1.3-1-2.7-1.1v-1.2h12.7v-.2ZM421.2,339.7v15.6h-1.3c-1-4.1-2.8-7.2-5.5-9.4s-5.7-3.3-9.1-3.3-5.4.8-7.8,2.4-4.1,3.7-5.2,6.4c-1.4,3.4-2.1,7.1-2.1,11.2s.5,7.7,1.5,11,2.6,5.8,4.8,7.5c2.2,1.7,5,2.5,8.5,2.5s5.4-.6,7.8-1.9,4.9-3.4,7.5-6.4v3.9c-2.5,2.6-5.2,4.6-7.9,5.7-2.7,1.2-5.9,1.8-9.6,1.8s-9.1-1-12.8-2.9c-3.7-1.9-6.6-4.7-8.7-8.3-2-3.6-3-7.5-3-11.5s1.1-8.4,3.4-12.2c2.3-3.9,5.3-6.9,9.1-9s7.9-3.2,12.2-3.2,6.5.7,10.1,2.1c2,.8,3.3,1.2,3.9,1.2s1.3-.3,1.8-.8.9-1.3,1-2.5h1.4ZM441.5,353.8c2.7,0,5.2.7,7.6,2.1,2.3,1.4,4.1,3.4,5.3,6,1.2,2.6,1.8,5.4,1.8,8.5,0,4.4-1.1,8.1-3.4,11.1-2.7,3.6-6.4,5.4-11.2,5.4s-8.3-1.6-10.8-4.9-3.8-7.1-3.8-11.4,1.3-8.3,3.9-11.7c2.6-3.3,6.1-5,10.6-5h0ZM441.6,356.2c-1.1,0-2.1.4-2.9,1.3s-1.3,2.5-1.6,5.1c-.3,2.5-.4,6-.4,10.5s.2,4.6.5,6.7c.2,1.6.8,2.8,1.6,3.6s1.7,1.2,2.7,1.2,1.8-.3,2.5-.8c.9-.8,1.4-1.8,1.7-3.2.4-2.1.7-6.4.7-12.8s-.2-6.4-.6-7.8-1-2.4-1.9-3.1c-.6-.5-1.3-.7-2.3-.7h0ZM473.1,354.8v4c1.6-1.7,3.1-3,4.6-3.8s3-1.2,4.7-1.2,3.7.6,5,1.7,2.2,2.5,2.7,4.2c.4,1.3.5,3.7.5,7.3v12.1c0,2.4.2,3.9.6,4.5s1.3,1,2.7,1.1v1.2h-15.7v-1.2c1.2-.2,2-.6,2.5-1.5.4-.6.5-1.9.5-4.1v-13.8c0-2.6,0-4.2-.3-4.8-.2-.7-.5-1.2-1-1.5-.5-.4-1-.5-1.6-.5-1.9,0-3.7,1.4-5.3,4.1v16.7c0,2.3.2,3.8.6,4.4s1.2,1,2.4,1.2v1.2h-15.7v-1.2c1.3-.1,2.2-.6,2.8-1.3.4-.5.6-1.9.6-4.3v-17.6c0-2.4-.2-3.8-.6-4.4s-1.3-1-2.7-1.1v-1.2h12.7v-.2ZM517.5,353.9l.5,10.6h-1.1c-1.4-3.1-2.8-5.3-4.2-6.5-1.5-1.2-2.9-1.7-4.3-1.7s-1.7.3-2.3.9c-.6.6-1,1.3-1,2.1s.2,1.2.7,1.7c.7.9,2.7,2.5,6,4.7s5.4,4.1,6.4,5.6,1.5,3.3,1.5,5.2-.4,3.4-1.3,5.1-2.1,2.9-3.7,3.8c-1.6.9-3.3,1.3-5.2,1.3s-3.5-.5-6-1.4c-.7-.2-1.1-.4-1.4-.4-.7,0-1.3.6-1.8,1.7h-1.1l-.5-11.2h1.1c1,2.9,2.4,5.1,4.1,6.6s3.4,2.2,4.9,2.2,1.9-.3,2.6-1,1-1.4,1-2.4-.3-2-1-2.8-2.2-2-4.5-3.5c-3.4-2.4-5.6-4.1-6.6-5.4-1.5-1.8-2.2-3.8-2.2-6s.8-4.6,2.5-6.5,4-2.9,7.2-2.9,3.3.4,4.9,1.2c.6.3,1.1.5,1.5.5s.7,0,1-.2c.2-.2.6-.6,1.2-1.4h1.1,0ZM553.9,354.8v24.4c0,2.4.2,3.9.7,4.4.4.6,1.3,1,2.7,1.1v1.2h-12.7v-4.2c-1.5,1.8-3,3.1-4.5,3.9s-3.2,1.2-5,1.2-3.3-.5-4.7-1.6-2.3-2.3-2.7-3.8-.7-4-.7-7.6v-12.3c0-2.4-.2-3.8-.6-4.4s-1.3-1-2.7-1.1v-1.2h12.7v21.3c0,2.2,0,3.6.3,4.3s.5,1.1,1,1.5c.5.3,1,.5,1.6.5s1.5-.2,2.2-.6c.9-.6,2-1.7,3.2-3.5v-16.6c0-2.4-.2-3.8-.6-4.4s-1.3-1-2.7-1.1v-1.2h12.7l-.2-.2ZM573.5,340.7v38.7c0,2.2.3,3.6.8,4.2s1.5,1,3,1v1.2h-16.8v-1.2c1.4,0,2.4-.4,3.1-1.2.4-.5.7-1.9.7-4.1v-32.2c0-2.2-.3-3.6-.8-4.2s-1.5-1-3-1v-1.2h13ZM596.9,381.3c-3.8,3.4-7.2,5-10.2,5s-3.3-.6-4.4-1.7-1.8-2.6-1.8-4.4,1-4.5,3.1-6.4c2-1.9,6.5-4.4,13.3-7.6v-3.1c0-2.4,0-3.8-.4-4.4s-.7-1.1-1.4-1.6-1.5-.7-2.4-.7c-1.4,0-2.6.3-3.6,1-.6.4-.9.9-.9,1.4s.3,1,.9,1.7c.8,1,1.3,1.9,1.3,2.8s-.4,2-1.2,2.8-1.9,1.1-3.2,1.1-2.6-.4-3.5-1.3c-.9-.8-1.4-1.8-1.4-3s.6-3.1,1.9-4.6,3-2.6,5.3-3.3c2.3-.8,4.6-1.2,7.1-1.2s5.3.6,7,1.9,2.8,2.6,3.3,4.1c.3.9.5,3.1.5,6.4v12.1c0,1.4,0,2.3.2,2.7,0,.4.3.6.5.8.2.2.5.3.8.3.6,0,1.2-.4,1.8-1.2l1,.8c-1.1,1.6-2.3,2.8-3.4,3.6-1.2.7-2.5,1.1-4,1.1s-3.2-.4-4.2-1.2c-1-.8-1.6-2.1-1.8-3.8h-.2ZM596.9,378.9v-10.4c-2.7,1.6-4.7,3.3-6,5.1-.9,1.2-1.3,2.4-1.3,3.6s.4,1.9,1.1,2.7c.6.6,1.3.9,2.3.9s2.4-.6,3.9-1.9h0ZM625.7,343.4v11.4h7.4v3.3h-7.4v19.2c0,1.8,0,3,.2,3.5s.5.9.9,1.3c.4.3.8.5,1.2.5,1.4,0,2.8-1.1,4.1-3.3l1,.7c-1.8,4.3-4.7,6.4-8.8,6.4s-3.6-.5-5-1.6-2.2-2.3-2.6-3.7c-.2-.8-.3-2.8-.3-6.1v-16.8h-4.1v-1.2c2.8-2,5.2-4,7.1-6.2,2-2.2,3.7-4.6,5.1-7.3h1.2ZM661.9,369.2h-17.1c.2,4.1,1.3,7.4,3.3,9.8,1.5,1.8,3.4,2.8,5.5,2.8s2.5-.4,3.6-1.1,2.3-2.1,3.5-4l1.1.7c-1.7,3.4-3.5,5.9-5.6,7.3-2,1.4-4.4,2.1-7.1,2.1-4.6,0-8.1-1.8-10.5-5.3-1.9-2.9-2.9-6.4-2.9-10.6s1.4-9.3,4.2-12.4,6.1-4.6,9.9-4.6,5.9,1.3,8.2,3.9,3.6,6.4,3.7,11.5h.2ZM653.7,367c0-3.6-.2-6-.6-7.4-.4-1.3-1-2.3-1.8-3-.5-.4-1.1-.6-1.9-.6-1.2,0-2.1.6-2.8,1.7-1.3,2-2,4.7-2,8.1v1.2h9.1ZM684.1,373.7h-19.4v-6.9h19.4v6.9ZM732.3,339.7v15.9h-1.2c-1.5-4.3-3.7-7.7-6.7-9.9-3-2.3-6.2-3.4-9.8-3.4s-6.2.9-8.4,2.8-3.8,4.5-4.8,7.9-1.4,6.9-1.4,10.4.5,8.1,1.5,11.4,2.7,5.7,4.9,7.2c2.3,1.5,5,2.3,8.1,2.3s2.2-.1,3.3-.3c1.1-.2,2.3-.6,3.5-1v-9.4c0-1.8,0-2.9-.4-3.4-.2-.5-.7-1-1.5-1.4s-1.7-.6-2.8-.6h-1.2v-1.2h21.9v1.2c-1.7.1-2.8.3-3.5.7-.7.3-1.2.9-1.5,1.7-.2.4-.3,1.5-.3,3.1v9.4c-2.9,1.3-5.9,2.3-9,2.9-3.1.7-6.4,1-9.7,1s-7.8-.6-10.7-1.7c-2.8-1.2-5.3-2.7-7.5-4.6s-3.9-4-5.1-6.4c-1.6-3.1-2.3-6.5-2.3-10.3,0-6.8,2.4-12.5,7.2-17.2s10.8-7,18-7,4.3.2,6.1.5c1,.2,2.6.7,4.7,1.5s3.5,1.2,3.9,1.2c.6,0,1.2-.2,1.7-.7s1-1.3,1.5-2.6h1.5ZM766.5,369.2h-17.1c.2,4.1,1.3,7.4,3.3,9.8,1.5,1.8,3.4,2.8,5.5,2.8s2.5-.4,3.6-1.1,2.3-2.1,3.5-4l1.1.7c-1.7,3.4-3.5,5.9-5.6,7.3-2,1.4-4.4,2.1-7.1,2.1-4.6,0-8.1-1.8-10.5-5.3-1.9-2.9-2.9-6.4-2.9-10.6s1.4-9.3,4.2-12.4,6.1-4.6,9.9-4.6,5.9,1.3,8.2,3.9,3.6,6.4,3.7,11.5h.2ZM758.3,367c0-3.6-.2-6-.6-7.4-.4-1.3-1-2.3-1.8-3-.5-.4-1.1-.6-1.9-.6-1.2,0-2.1.6-2.8,1.7-1.3,2-2,4.7-2,8.1v1.2h9.1ZM782.6,354.8v4c1.6-1.7,3.1-3,4.6-3.8s3-1.2,4.7-1.2,3.7.6,5,1.7,2.2,2.5,2.7,4.2c.4,1.3.5,3.7.5,7.3v12.1c0,2.4.2,3.9.6,4.5s1.3,1,2.7,1.1v1.2h-15.7v-1.2c1.2-.2,2-.6,2.5-1.5.4-.6.5-1.9.5-4.1v-13.8c0-2.6,0-4.2-.3-4.8-.2-.7-.5-1.2-1-1.5-.5-.4-1-.5-1.6-.5-1.9,0-3.7,1.4-5.3,4.1v16.7c0,2.3.2,3.8.6,4.4.4.6,1.2,1,2.4,1.2v1.2h-15.7v-1.2c1.3-.1,2.2-.6,2.8-1.3.4-.5.6-1.9.6-4.3v-17.6c0-2.4-.2-3.8-.6-4.4s-1.3-1-2.7-1.1v-1.2h12.7v-.2ZM833.7,369.2h-17.1c.2,4.1,1.3,7.4,3.3,9.8,1.5,1.8,3.4,2.8,5.5,2.8s2.5-.4,3.6-1.1,2.3-2.1,3.5-4l1.1.7c-1.7,3.4-3.5,5.9-5.6,7.3-2,1.4-4.4,2.1-7.1,2.1-4.6,0-8.1-1.8-10.5-5.3-1.9-2.9-2.9-6.4-2.9-10.6s1.4-9.3,4.2-12.4,6.1-4.6,9.9-4.6,5.9,1.3,8.2,3.9,3.6,6.4,3.7,11.5h.2ZM825.5,367c0-3.6-.2-6-.6-7.4-.4-1.3-1-2.3-1.8-3-.5-.4-1.1-.6-1.9-.6-1.2,0-2.1.6-2.8,1.7-1.3,2-2,4.7-2,8.1v1.2h9.1ZM850,354.8v7.1c2.1-3.2,3.9-5.4,5.4-6.4s3.1-1.6,4.5-1.6,2.2.4,3,1.1,1.1,1.8,1.1,3.2-.4,2.6-1.1,3.5c-.7.8-1.6,1.2-2.6,1.2s-2.2-.4-3.1-1.1-1.4-1.2-1.5-1.3c-.2-.1-.5-.2-.8-.2-.6,0-1.3.2-1.8.7-.9.8-1.6,1.8-2.1,3.2-.7,2.2-1.1,4.5-1.1,7.1v9c0,1.3,0,2.1.3,2.4.3.6.7,1,1.2,1.3s1.4.4,2.6.5v1.2h-16.8v-1.2c1.4-.1,2.3-.5,2.7-1.1.5-.6.7-2.3.7-5v-17.2c0-1.8,0-2.9-.3-3.4-.2-.6-.5-1.1-1-1.4-.4-.3-1.2-.5-2.2-.6v-1.2h12.7l.2.2ZM884,381.3c-3.8,3.4-7.2,5-10.2,5s-3.3-.6-4.4-1.7-1.8-2.6-1.8-4.4,1-4.5,3.1-6.4c2-1.9,6.5-4.4,13.3-7.6v-3.1c0-2.4,0-3.8-.4-4.4s-.7-1.1-1.4-1.6-1.5-.7-2.4-.7c-1.4,0-2.6.3-3.6,1-.6.4-.9.9-.9,1.4s.3,1,.9,1.7c.8,1,1.3,1.9,1.3,2.8s-.4,2-1.2,2.8-1.9,1.1-3.2,1.1-2.6-.4-3.5-1.3c-.9-.8-1.4-1.8-1.4-3s.6-3.1,1.9-4.6,3-2.6,5.3-3.3c2.3-.8,4.6-1.2,7.1-1.2s5.3.6,7,1.9,2.8,2.6,3.3,4.1c.3.9.5,3.1.5,6.4v12.1c0,1.4,0,2.3.2,2.7,0,.4.3.6.5.8.2.2.5.3.8.3.6,0,1.2-.4,1.8-1.2l1,.8c-1.1,1.6-2.3,2.8-3.4,3.6-1.2.7-2.5,1.1-4,1.1s-3.2-.4-4.2-1.2c-1-.8-1.6-2.1-1.8-3.8h-.2ZM884,378.9v-10.4c-2.7,1.6-4.7,3.3-6,5.1-.9,1.2-1.3,2.4-1.3,3.6s.4,1.9,1.1,2.7c.6.6,1.3.9,2.3.9s2.4-.6,3.9-1.9h0ZM912.6,340.7v38.7c0,2.2.3,3.6.8,4.2s1.5,1,3,1v1.2h-16.8v-1.2c1.4,0,2.4-.4,3.1-1.2.4-.5.7-1.9.7-4.1v-32.2c0-2.2-.3-3.6-.8-4.2s-1.5-1-3-1v-1.2h13Z"/>
  <path class="cls-1" d="M296.4,427.7l22.3,28v-19.4c0-2.7-.4-4.5-1.2-5.5-1.1-1.3-2.9-1.9-5.4-1.9v-1.2h14.9v1.2c-1.9.2-3.2.6-3.8.9-.7.4-1.2,1-1.5,1.9-.4.9-.5,2.4-.5,4.5v37.6h-1.1l-30.5-37.6v28.7c0,2.6.6,4.3,1.8,5.3,1.2.9,2.5,1.4,4.1,1.4h1.1v1.2h-16v-1.2c2.5,0,4.2-.5,5.2-1.5s1.5-2.7,1.5-5.1v-31.8l-1-1.2c-1-1.2-1.8-2-2.5-2.4s-1.8-.6-3.2-.6v-1.2h16-.2ZM356.8,456.2h-17.1c.2,4.1,1.3,7.4,3.3,9.8,1.5,1.8,3.4,2.8,5.5,2.8s2.5-.4,3.6-1.1,2.3-2.1,3.5-4l1.1.7c-1.7,3.4-3.6,5.9-5.6,7.3s-4.4,2.1-7.1,2.1c-4.6,0-8.1-1.8-10.5-5.3-1.9-2.9-2.9-6.4-2.9-10.6s1.4-9.3,4.2-12.4c2.8-3.1,6.1-4.6,9.9-4.6s5.9,1.3,8.2,3.9c2.3,2.6,3.6,6.4,3.7,11.5h.2ZM348.6,454c0-3.6-.2-6-.6-7.4-.4-1.3-1-2.3-1.8-3-.5-.4-1.1-.6-1.9-.6-1.2,0-2.1.6-2.8,1.7-1.3,2-2,4.7-2,8.1v1.2h9.1,0ZM391.1,473.8l-8.5-22.8-8.4,22.8h-1.7l-8.3-22.6c-1.2-3.4-2.3-5.7-3.2-6.7-.6-.7-1.4-1.2-2.5-1.5v-1.2h15.7v1.2c-1.1,0-1.8.2-2.2.5-.4.3-.6.7-.6,1.1s.4,1.5,1.1,3.4l4.6,12.1,4.4-12.1-.3-.8c-.7-1.7-1.2-2.7-1.7-3.2s-1.3-.8-2.3-.9v-1.2h15.9v1.2c-1.2,0-2,.2-2.4.5-.3.3-.5.7-.5,1.2s.3,1.6,1,3.2l4.4,12.1,4-11.2c.6-1.6.9-2.7.9-3.3,0-.9-.2-1.5-.6-1.9s-1.2-.6-2.5-.7v-1.2h9.2v1.2c-1,.1-1.8.5-2.4,1.1s-1.4,2.3-2.3,5l-8.7,24.7h-2.1ZM469.2,427.7v1.2c-1.5.2-2.6.6-3.4,1.3-1.1.9-2.9,3.5-5.3,7.6l-9.8,16.3v10.9c0,2.3.1,3.8.4,4.3s.7,1.1,1.4,1.5c.7.4,1.7.6,2.9.6h2.5v1.2h-25.3v-1.2h2.4c1.3,0,2.4-.2,3.2-.7.6-.3,1-.8,1.4-1.6.2-.5.4-1.9.4-4.2v-9.1l-10.6-19.3c-2.1-3.8-3.6-6.1-4.5-6.7s-2-1-3.5-1v-1.2h21.6v1.2h-1c-1.3,0-2.2.2-2.7.6s-.8.8-.8,1.2c0,.8.9,2.8,2.7,6l8.2,14.9,8.1-13.6c2-3.3,3-5.5,3-6.6s-.3-1.1-.9-1.5c-.8-.6-2.1-.9-4.2-1v-1.2h13.8ZM478.9,440.8c2.7,0,5.2.7,7.6,2.1s4.1,3.4,5.3,6c1.2,2.6,1.8,5.4,1.8,8.5,0,4.4-1.1,8.1-3.4,11.1-2.7,3.6-6.4,5.4-11.2,5.4s-8.3-1.6-10.8-4.9-3.8-7.1-3.8-11.4,1.3-8.3,3.9-11.7c2.6-3.3,6.1-5,10.6-5h0ZM479,443.2c-1.1,0-2.1.4-2.9,1.3s-1.3,2.5-1.6,5.1c-.3,2.5-.4,6-.4,10.5s.2,4.6.5,6.7c.2,1.6.8,2.8,1.6,3.6s1.7,1.2,2.7,1.2,1.8-.3,2.5-.8c.9-.8,1.4-1.8,1.7-3.2.4-2.1.7-6.4.7-12.8s-.2-6.4-.6-7.8-1-2.4-1.9-3.1c-.6-.5-1.3-.7-2.3-.7h0ZM510.7,441.8v7.1c2.1-3.2,3.9-5.4,5.4-6.4,1.6-1.1,3.1-1.6,4.5-1.6s2.2.4,3,1.1c.7.8,1.1,1.8,1.1,3.2s-.4,2.6-1.1,3.5c-.7.8-1.6,1.2-2.6,1.2s-2.2-.4-3.1-1.1-1.4-1.2-1.5-1.3c-.2-.1-.5-.2-.8-.2-.6,0-1.3.2-1.8.7-.9.8-1.6,1.8-2.1,3.2-.7,2.2-1.1,4.5-1.1,7.1v9c0,1.3.1,2.1.3,2.4.3.6.7,1,1.2,1.3s1.4.4,2.6.5v1.2h-16.8v-1.2c1.4-.1,2.3-.5,2.7-1.1.5-.6.7-2.3.7-5v-17.2c0-1.8,0-2.9-.3-3.4-.2-.6-.5-1.1-1-1.4-.4-.3-1.2-.5-2.2-.6v-1.2h12.7l.2.2ZM540.2,427.7v29.7l7.2-7.1c1.5-1.4,2.4-2.5,2.8-3.1.4-.6.5-1.3.5-1.9s-.2-1.1-.7-1.5-1.4-.7-2.9-.9v-1.2h13.9v1.2c-1.3,0-2.5.4-3.5.9-1,.6-3,2.3-5.9,5.1l-3.4,3.3,7.3,10.7c3,4.3,4.7,6.8,5.3,7.3.8.8,1.7,1.2,2.9,1.3v1.2h-16.1v-1.2c.7,0,1.2-.1,1.5-.4s.5-.6.5-.9c0-.5-.5-1.5-1.4-2.8l-6.2-9-2,2v5.6c0,2.4.2,3.9.7,4.4.4.6,1.4,1,2.7,1.1v1.2h-16.1v-1.2c1.3-.1,2.2-.6,2.8-1.3.4-.5.6-1.9.6-4.3v-31.6c0-2.4-.2-3.8-.6-4.4-.4-.6-1.3-1-2.7-1.1v-1.2h12.8ZM566.1,484.8v-1.5c2.6-1.1,4.4-2.5,5.6-4.3s1.7-3.6,1.7-5.4,0-.7-.2-.9c-.2-.2-.3-.3-.5-.3s-.3,0-.6.2c-.6.4-1.4.6-2.4.6s-2.4-.5-3.4-1.5-1.4-2.2-1.4-3.6.6-2.8,1.7-3.9,2.5-1.7,4-1.7,3.5.7,4.9,2.2,2,3.5,2,6.1-1,6-2.9,8.5-4.8,4.3-8.5,5.4h0ZM612.8,427.7l22.3,28v-19.4c0-2.7-.4-4.5-1.2-5.5-1.1-1.3-2.9-1.9-5.4-1.9v-1.2h14.9v1.2c-1.9.2-3.2.6-3.8.9-.7.4-1.2,1-1.5,1.9-.4.9-.5,2.4-.5,4.5v37.6h-1.1l-30.5-37.6v28.7c0,2.6.6,4.3,1.8,5.3,1.2.9,2.5,1.4,4.1,1.4h1.1v1.2h-16v-1.2c2.5,0,4.2-.5,5.2-1.5s1.5-2.7,1.5-5.1v-31.8l-1-1.2c-1-1.2-1.8-2-2.5-2.4s-1.8-.6-3.2-.6v-1.2h16-.2ZM693,427.7v1.2c-1.5.2-2.6.6-3.4,1.3-1.1.9-2.9,3.5-5.3,7.6l-9.8,16.3v10.9c0,2.3,0,3.8.4,4.3.2.6.7,1.1,1.4,1.5s1.7.6,2.9.6h2.5v1.2h-25.3v-1.2h2.4c1.3,0,2.4-.2,3.2-.7.6-.3,1-.8,1.4-1.6.2-.5.4-1.9.4-4.2v-9.1l-10.6-19.3c-2.1-3.8-3.6-6.1-4.5-6.7s-2-1-3.5-1v-1.2h21.6v1.2h-1c-1.3,0-2.2.2-2.7.6s-.8.8-.8,1.2c0,.8.9,2.8,2.7,6l8.2,14.9,8.1-13.6c2-3.3,3-5.5,3-6.6s-.3-1.1-.9-1.5c-.8-.6-2.1-.9-4.2-1v-1.2h13.8Z"/>
  <rect class="cls-1" x="53.3" y="407.7" width="863" height="2"/>
</svg>